<svg t="1673337672162" class="icon" viewBox="0 0 1024 1024" version="1.1" xmlns="http://www.w3.org/2000/svg" p-id="19236" width="200" height="200"><path d="M542.037333 198.178133l68.266667-28.8768-14.9504 148.138667z m191.146667-95.573333l75.776 66.218667-179.131733 146.773333zM326.178133 200.567467l60.1088-81.92 150.9376 177.493333zM85.742933 624.64c6.417067-28.808533 17.339733-51.6096 50.210134-50.210133a23.893333 23.893333 0 0 0 12.117333-15.940267c8.567467-32.6656 17.92-65.3312 23.2448-98.7136a113.186133 113.186133 0 0 1 89.326933-95.778133c17.066667-5.290667 34.781867-9.386667 52.155734-13.994667a416.938667 416.938667 0 0 1 135.645866-12.9024c31.5392 4.164267 63.3856 6.826667 94.549334 13.038933a68.608 68.608 0 0 1 50.824533 44.373334q23.893333 58.333867 49.937067 115.712a24.8832 24.8832 0 0 0 15.837866 14.472533 46.830933 46.830933 0 0 1 55.978667 35.771733 49.732267 49.732267 0 0 1 1.7408 21.640534l-35.2256 14.2336a391.2704 391.2704 0 0 1 7.953067 41.8816c5.700267 64.6144 11.264 129.262933 15.291733 194.013866a59.869867 59.869867 0 0 1-8.021333 33.416534 269.1072 269.1072 0 0 1-100.932267 11.5712c-24.712533-14.267733-12.561067-43.349333-21.879467-65.1264l-305.937066 29.0816a246.272 246.272 0 0 1-11.229867 68.266666 272.827733 272.827733 0 0 1-103.697067 9.864534 66.594133 66.594133 0 0 1-14.4384-35.9424c-3.925333-27.067733-5.12-54.613333-7.099733-81.92-3.549867-50.926933-6.929067-101.717333-10.4448-152.917334l-34.5088-6.485333a44.373333 44.373333 0 0 1-1.399467-17.408z m466.261334 83.012267a325.358933 325.358933 0 0 0 43.178666 0 414.856533 414.856533 0 0 0 49.186134-11.707734c23.074133-8.123733 16.384-29.252267 14.370133-47.5136-1.7408-15.598933-11.639467-26.5216-24.234667-20.923733a661.538133 661.538133 0 0 0-91.9552 48.981333 17.066667 17.066667 0 0 0 9.454934 31.232z m52.155733-167.253334c-14.7456-37.751467-29.184-71.202133-40.789333-105.813333a53.179733 53.179733 0 0 0-56.285867-41.5744c-65.8432 3.037867-131.618133 6.826667-197.256533 12.424533a257.6384 257.6384 0 0 0-63.829334 17.066667 37.1712 37.1712 0 0 0-21.777066 19.8656c-12.219733 43.963733-22.050133 88.746667-33.6896 137.3184A908.4928 908.4928 0 0 0 604.16 540.5696zM181.1456 741.239467a460.561067 460.561067 0 0 0 49.698133 1.3312c0 0.4096 0 0.2048 0 0a141.312 141.312 0 0 0 33.518934-6.3488 31.778133 31.778133 0 0 0 18.773333-17.988267 26.385067 26.385067 0 0 0-13.653333-20.48 687.2064 687.2064 0 0 0-81.92-26.760533 22.1184 22.1184 0 0 0-31.3344 20.002133c-3.618133 31.1296 3.618133 47.479467 24.917333 50.244267z m515.413333-137.898667a652.561067 652.561067 0 0 0 162.986667-2.8672c-8.738133-39.765333-16.145067-76.458667-25.326933-112.4352a29.013333 29.013333 0 0 0-16.384-16.247467 181.179733 181.179733 0 0 0-47.786667-13.9264 3246.660267 3246.660267 0 0 0-136.533333-9.557333q-7.850667-20.002133-15.496534-40.1408c15.906133-2.423467 31.880533-4.130133 47.786667-6.4512a288.5632 288.5632 0 0 1 101.922133 10.5472c13.073067 3.7888 26.248533 7.133867 39.185067 11.4688a89.770667 89.770667 0 0 1 67.106133 78.506667c3.9936 27.306667 11.025067 54.101333 17.442134 80.827733a19.3536 19.3536 0 0 0 9.1136 13.073067c24.6784-1.160533 32.904533 17.544533 37.717333 40.96a39.5264 39.5264 0 0 1-1.058133 14.165333l-25.941334 5.290667c-2.628267 41.915733-5.188267 83.5584-7.8848 125.201066-1.467733 22.4256-2.389333 44.987733-5.3248 67.140267a57.207467 57.207467 0 0 1-10.8544 29.457067 188.893867 188.893867 0 0 1-77.9264-8.0896 218.453333 218.453333 0 0 1-8.430933-55.9104l-85.026133-8.8064c-3.413333-53.521067-7.645867-106.973867-11.9808-160.426667a422.331733 422.331733 0 0 0-7.304534-41.8816z m93.422934 110.421333a24.917333 24.917333 0 0 0 14.1312 14.711467 98.4064 98.4064 0 0 0 25.1904 5.188267s0 0.341333 0 0a317.8496 317.8496 0 0 0 37.341866-1.092267c16.008533-2.2528 21.435733-15.6672 18.5344-40.96a16.725333 16.725333 0 0 0-23.517866-16.384 487.0144 487.0144 0 0 0-61.44 21.9136 21.777067 21.777067 0 0 0-10.205867 16.622933z" fill="#515151" p-id="19237"></path></svg>