<svg t="1673337726567" class="icon" viewBox="0 0 1024 1024" version="1.1" xmlns="http://www.w3.org/2000/svg" p-id="20400" width="200" height="200"><path d="M300.9 300.6m-300 0a300 300 0 1 0 600 0 300 300 0 1 0-600 0Z" fill="#F5C04E" opacity=".5" p-id="20401"></path><path d="M353.6 767.1c-1.2 0-2.3-0.9-2.5-2.1l-153-744.8-0.9 0.2c0.1-1.4-1-2.6-2.4-2.7L7.2 7.4c-1.4-0.1-2.6 1-2.7 2.4l-3 55.6c-0.1 1.4 1 2.6 2.4 2.7L146.3 76c1.2 0.1 2.2 0.9 2.4 2.1l153.9 749.5 0.5-0.1v0.6h717.4c1.4 0 2.6-1.2 2.6-2.6v-55.8c0-1.4-1.2-2.6-2.6-2.6H353.6z" fill="#1F2020" p-id="20402"></path><path d="M922.6 685.5H421c-2.8 0-5-2.2-5-5v-50c0-2.8 2.2-5 5-5h451.7c2.4 0 4.5-1.7 4.9-4.1l71.3-386c0.6-3.1-1.8-5.9-4.9-5.9H336.7c-2.8 0-5-2.2-5-5v-50c0-2.8 2.2-5 5-5h679.4c3.1 0 5.5 2.8 4.9 5.9l-93.5 506c-0.4 2.3-2.5 4.1-4.9 4.1z" fill="#1F2020" p-id="20403"></path><path d="M512.9 963.4m-60 0a60 60 0 1 0 120 0 60 60 0 1 0-120 0Z" fill="#1F2020" p-id="20404"></path><path d="M819 963.4m-60 0a60 60 0 1 0 120 0 60 60 0 1 0-120 0Z" fill="#1F2020" p-id="20405"></path><path d="M593.2 447.8c10.7 10.7 27.5 10.7 39.6 0L742.6 338c3-3 3-7.6 1.5-10.7-14.8-19.6-34.2-35.3-56.5-45.7-57.9-27.5-126.5-19.8-173.8 18.3-40 32.2-62.5 81.3-61 132.6 1.5 51.8 27.5 97.5 70.1 128 27.5 18.3 59.5 29 91.5 29 33.5 0 67.1-10.7 94.5-30.5 45.2-32.6 70.6-86.1 67.1-141.8-0.2-10.4-6.9-19.5-16.8-22.8-10-4.3-21.6-1.9-29 6.1-6.1 6.1-7.6 13.7-7.6 21.4 1.5 36-15.1 70.3-44.2 91.5-36.1 26-84.6 27.2-122 3-26.9-17.9-44.3-47.1-47.3-79.3-3.3-32.1 7.9-63.9 30.5-86.9 34.3-34.6 87.6-41.5 129.6-16.8L593 409.6c-10.4 9.3-10.4 27.6 0.2 38.2z m0 0" fill="#1F2020" p-id="20406"></path></svg>