<svg t="1673337864276" class="icon" viewBox="0 0 1024 1024" version="1.1" xmlns="http://www.w3.org/2000/svg" p-id="21518" width="200" height="200"><path d="M554.666667 384h47.658666a21.333333 21.333333 0 0 1 18.304 32.298667l-90.325333 150.528a21.333333 21.333333 0 0 1-36.608 0L403.370667 416.298667A21.333333 21.333333 0 0 1 421.717333 384H469.333333V256a42.666667 42.666667 0 0 0-42.666666-42.666667H213.333333v597.333334h597.333334V213.333333h-128a42.666667 42.666667 0 0 1 0-85.333333h170.666666a42.666667 42.666667 0 0 1 42.666667 42.666667v682.666666a42.666667 42.666667 0 0 1-42.666667 42.666667H170.666667a42.666667 42.666667 0 0 1-42.666667-42.666667V170.666667a42.666667 42.666667 0 0 1 42.666667-42.666667h298.666666a85.333333 85.333333 0 0 1 85.333334 85.333333v170.666667z m-170.666667 256h256a42.666667 42.666667 0 0 1 0 85.333333H384a42.666667 42.666667 0 0 1 0-85.333333z" fill="#000000" p-id="21519"></path></svg>