<?xml version="1.0" encoding="utf-8"?>
<!-- Generator: Adobe Illustrator 22.0.0, SVG Export Plug-In . SVG Version: 6.00 Build 0)  -->
<svg version="1.1" xmlns="http://www.w3.org/2000/svg" xmlns:xlink="http://www.w3.org/1999/xlink" x="0px" y="0px"
	 viewBox="0 0 40 40" style="enable-background:new 0 0 40 40;" xml:space="preserve">
<style type="text/css">
	.st0{fill:#FFFFFF;}
	.st1{display:none;}
	.st2{display:none;fill:#F47391;}
	.st3{display:none;opacity:0.5;fill:#F47391;}
	.st4{display:inline;fill:#EFEFEF;}
	.st5{display:inline;fill:#FFFFFF;}
	.st6{fill:#EC193A;}
</style>
<g id="图层_1">
	<circle class="st0" cx="20" cy="20" r="19"/>
	<rect x="-859.4" y="-645.3" class="st1" width="1920" height="1080"/>
	
		<image style="display:none;overflow:visible;" width="374" height="669" xlink:href="5B7B9B1A.jpg"  transform="matrix(0.9999 0 0 0.9999 -14.4287 -443.2649)">
	</image>
	<g class="st1">
		<polygon class="st5" points="29.6,13.3 29.6,11.3 29.6,10.4 27,10 27,13.3 24.2,13.3 24.2,9.8 24.2,8.7 21.4,8.1 21.4,13.3 
			18.6,13.3 18.6,11.5 18.6,10.5 16,10 16,13.3 16,14.1 16,14.3 29.6,14.3 29.6,13.3 		"/>
		<path class="st5" d="M15.8,9.2l-3.9-0.8L7.6,21.7c0.7-0.6,3.2-3.2,3.2-3.2l0.1,12.4l2.4-0.6l-0.1-16.2
			C13.9,12.9,15.8,9.2,15.8,9.2z"/>
		<path class="st5" d="M25.1,28.3v-2.4h5.3v-1h-5.3v-2.5h5.3v-1h-5.3v-2.3h5.3v-1h-6.1l-0.1-0.3l1-1.8L22,14.5l-0.2,0.3
			c0.5,1.1,1.1,2,1.4,3.2L23,18.2h-4.1l1.6-2l-3.4-1l-2.9,8.3c0.5-0.5,1.3-1.2,1.8-1.6l0.1,9l2.8-0.6v-1c0,0,0,0,0,0h11.7v-1H25.1z
			 M18.9,19.2h3.4v2.3h-3.4V19.2z M22.4,28.3h-3.4v-2.4h3.4V28.3z M18.9,24.9v-2.5h3.4v2.5H18.9z"/>
	</g>
	<circle class="st0" cx="20" cy="20" r="19"/>
	<circle class="st6" cx="20" cy="20" r="17.5"/>
	<g>
		<path class="st0" d="M14.3,14.8v11.7c0,1.5,0,2.8,0.1,3.7h-1.7c0.1-1.1,0.1-2.3,0.1-3.6v-9.1c-0.7,1-1.3,2-1.9,2.9
			c-0.4-0.3-0.9-0.7-1.4-1c1-1,1.9-2.3,2.8-4c0.9-1.6,1.5-3.2,1.9-4.7c0.6,0.3,1.2,0.6,1.9,0.9C15.4,12.1,14.9,13.1,14.3,14.8z
			 M19.1,18.6h7.4c0.9,0,1.7,0,2.4-0.1V20c-0.7-0.1-1.5-0.1-2.4-0.1H24v1.4h1.9c0.8,0,1.5,0,2.1-0.1v1.4c-0.7-0.1-1.4-0.1-2-0.1h-2
			v1.7h1.8c0.8,0,1.6,0,2.3-0.1v1.4c-0.7-0.1-1.4-0.1-2.3-0.1H24v1.9h2.5c1,0,1.9,0,2.7-0.1v1.4c-0.8-0.1-1.7-0.1-2.7-0.1H19v1.2
			h-1.6c0.1-0.8,0.1-1.8,0.1-3.1v-6.1c-0.2,0.5-0.8,1.2-1.6,2.2c-0.5-0.5-0.9-0.9-1.4-1.2c1.4-1,2.8-2.9,4.2-5.6
			c0.6,0.3,1.1,0.6,1.7,0.9C20,17.4,19.5,18,19.1,18.6z M18.9,14.5h3.2c0-1.7,0-2.9-0.1-3.6h1.7c-0.1,0.6-0.1,1.8-0.1,3.6h3.1
			c0-1.1,0-1.9-0.1-2.5h1.7c-0.1,0.7-0.1,1.4-0.1,2s0,1.2,0.1,1.7H17.3c0.1-0.6,0.1-1.2,0.1-1.8c0-0.6,0-1.2-0.1-1.9H19
			C19,12.6,18.9,13.4,18.9,14.5z M22.5,21.4v-1.4H19v1.4H22.5z M22.5,24.3v-1.7H19v1.7H22.5z M22.5,27.4v-1.9H19v1.9H22.5z
			 M24.6,17.8c-0.6,0.2-1.1,0.5-1.5,0.8c-0.3-0.6-0.6-1.2-1.1-1.9c0.5-0.2,0.9-0.5,1.4-0.8C23.9,16.5,24.3,17.1,24.6,17.8z"/>
	</g>
</g>
<g id="图层_2">
</g>
</svg>
