<?xml version="1.0" encoding="UTF-8"?>
<svg width="19px" height="20px" viewBox="0 0 19 20" version="1.1" xmlns="http://www.w3.org/2000/svg" xmlns:xlink="http://www.w3.org/1999/xlink">
    <!-- Generator: Sketch 49.3 (51167) - http://www.bohemiancoding.com/sketch -->
    <title>Group 61 Copy 4</title>
    <desc>Created with Sketch.</desc>
    <defs></defs>
    <g id="Page-1" stroke="none" stroke-width="1" fill="none" fill-rule="evenodd">
        <g id="Artboard-4" transform="translate(-251.000000, -12.000000)" fill="#A4A4A4">
            <g id="Group-61-Copy-4" transform="translate(251.000000, 12.000000)">
                <g id="Group-57">
                    <path d="M3.00937471,4.50940076 L1.84586806,4.50940076 L1.84586806,18.1280035 L17.1541319,18.1280035 L17.1541319,4.50940076 L15.9992843,4.50940076 C15.4895619,4.50940076 15.0763503,4.09034006 15.0763503,3.5734025 C15.0763503,3.05646493 15.4895619,2.63740423 15.9992843,2.63740423 L18.077066,2.63740423 C18.5867884,2.63740423 19,3.05646493 19,3.5734025 L19,19.0640017 C19,19.5809393 18.5867884,20 18.077066,20 L0.922934028,20 C0.413211639,20 0,19.5809393 0,19.0640017 L0,3.5734025 C0,3.05646493 0.413211639,2.63740423 0.922934028,2.63740423 L3.00937471,2.63740423 C3.5190971,2.63740423 3.93230874,3.05646493 3.93230874,3.5734025 C3.93230874,4.09034006 3.5190971,4.50940076 3.00937471,4.50940076 Z M5.10853828,0.935998264 C5.10853828,0.419060697 5.52174992,0 6.03147231,0 C6.5411947,0 6.95440634,0.419060697 6.95440634,0.935998264 L6.95440634,3.81130049 C6.95440634,4.32823806 6.5411947,4.74729876 6.03147231,4.74729876 C5.52174992,4.74729876 5.10853828,4.32823806 5.10853828,3.81130049 L5.10853828,0.935998264 Z M12.5265413,0.935998264 C12.5265413,0.419060697 12.9397529,0 13.4494753,0 C13.9591977,0 14.3724093,0.419060697 14.3724093,0.935998264 L14.3724093,3.81130049 C14.3724093,4.32823806 13.9591977,4.74729876 13.4494753,4.74729876 C12.9397529,4.74729876 12.5265413,4.32823806 12.5265413,3.81130049 L12.5265413,0.935998264 Z M9.04503603,4.50769024 C8.53531364,4.50769024 8.122102,4.08862954 8.122102,3.57169198 C8.122102,3.05475441 8.53531364,2.63569371 9.04503603,2.63569371 L10.4359116,2.63569371 C10.945634,2.63569371 11.3588456,3.05475441 11.3588456,3.57169198 C11.3588456,4.08862954 10.945634,4.50769024 10.4359116,4.50769024 L9.04503603,4.50769024 Z" id="Combined-Shape" fill-rule="nonzero"></path>
                    <path d="M5.86835385,10.5279081 C5.35863146,10.5279081 4.94541982,10.1088474 4.94541982,9.59190985 C4.94541982,9.07497229 5.35863146,8.65591159 5.86835385,8.65591159 L13.749982,8.65591159 C14.2597044,8.65591159 14.6729161,9.07497229 14.6729161,9.59190985 C14.6729161,10.1088474 14.2597044,10.5279081 13.749982,10.5279081 L5.86835385,10.5279081 Z" id="Line-4-Copy-3" opacity="0.5"></path>
                    <path d="M5.86835385,14.5402464 C5.35863146,14.5402464 4.94541982,14.1211857 4.94541982,13.6042481 C4.94541982,13.0873105 5.35863146,12.6682498 5.86835385,12.6682498 L13.749982,12.6682498 C14.2597044,12.6682498 14.6729161,13.0873105 14.6729161,13.6042481 C14.6729161,14.1211857 14.2597044,14.5402464 13.749982,14.5402464 L5.86835385,14.5402464 Z" id="Line-4-Copy-4" opacity="0.5"></path>
                </g>
            </g>
        </g>
    </g>
</svg>