<?xml version="1.0" encoding="UTF-8"?>
<svg width="19px" height="20px" viewBox="0 0 19 20" version="1.1" xmlns="http://www.w3.org/2000/svg" xmlns:xlink="http://www.w3.org/1999/xlink">
    <!-- Generator: Sketch 49.3 (51167) - http://www.bohemiancoding.com/sketch -->
    <title>Group 44 Copy 2</title>
    <desc>Created with Sketch.</desc>
    <defs></defs>
    <g id="Page-1" stroke="none" stroke-width="1" fill="none" fill-rule="evenodd">
        <g id="Artboard-4-Copy" transform="translate(-251.000000, -12.000000)">
            <g id="Group-44-Copy-2" transform="translate(251.000000, 12.000000)">
                <g id="Group-20">
                    <path d="M18.0762584,2.63617213 L17.0427359,2.63617213 L15.9983343,2.63617213 L14.1320598,2.63617213 L14.1320598,0.936904404 C14.1320598,0.419299829 13.7186508,0 13.2083182,0 C12.6989745,0 12.2855656,0.419299829 12.2855656,0.936904404 L12.2855656,2.63617213 L10.1947842,2.63617213 L8.80422675,2.63617213 L6.71443444,2.63617213 L6.71443444,0.936904404 C6.71443444,0.419299829 6.30102545,0 5.79069283,0 C5.28036021,0 4.86794024,0.419299829 4.86794024,0.936904404 L4.86794024,2.63617213 L0.92275259,2.63617213 C0.413408984,2.63617213 0,3.05547196 0,3.57307654 L0,19.0630956 C0,19.5807002 0.413408984,20 0.92275259,20 L18.0762584,20 C18.586591,20 19,19.5807002 19,19.0630956 L19,3.57307654 C19,3.05547196 18.586591,2.63617213 18.0762584,2.63617213" id="Fill-1" fill="#EC193A"></path>
                    <g id="Group" transform="translate(4.500000, 9.000000)" fill="#FFC0CA">
                        <path d="M9.050427,2 L0.948556324,2 C0.4249695,2 0,1.55222282 0,0.999464381 C0,0.447777183 0.4249695,0 0.948556324,0 L9.050427,0 C9.5750305,0 10,0.447777183 10,0.999464381 C10,1.55222282 9.5750305,2 9.050427,2" id="Fill-12"></path>
                        <path d="M0.948556324,5 C0.4249695,5 0,4.55222282 0,3.99946438 C0,3.44777718 0.4249695,3 0.948556324,3 L9.050427,3 C9.5750305,3 10,3.44777718 10,3.99946438 C10,4.55222282 9.5750305,5 9.050427,5 L0.948556324,5 Z" id="Fill-14"></path>
                    </g>
                </g>
            </g>
        </g>
    </g>
</svg>