<?xml version="1.0" encoding="UTF-8"?>
<svg width="20px" height="20px" viewBox="0 0 20 20" version="1.1" xmlns="http://www.w3.org/2000/svg" xmlns:xlink="http://www.w3.org/1999/xlink">
    <!-- Generator: Sketch 49.3 (51167) - http://www.bohemiancoding.com/sketch -->
    <title>Group 62 Copy 4</title>
    <desc>Created with Sketch.</desc>
    <defs></defs>
    <g id="Page-1" stroke="none" stroke-width="1" fill="none" fill-rule="evenodd">
        <g id="Artboard-4" transform="translate(-320.000000, -12.000000)" fill="#A4A4A4">
            <g id="Group-62-Copy-4" transform="translate(320.000000, 12.000000)">
                <g id="Group-58">
                    <path d="M15.5994373,15.9764033 L18.124472,15.9764033 C16.2917775,18.417481 13.3501749,20 10.0785769,20 C6.77090144,20 3.8708266,18.4681548 2.0326819,15.9764033 L4.5360131,15.9764033 C6.00552007,17.3599765 7.94994499,18.138701 10.0785769,18.138701 C12.1521407,18.138701 14.1147373,17.3451938 15.5994373,15.9764033 Z M18.124472,15.9764033 C16.2917775,18.417481 13.3501749,20 10.0785769,20 C6.77090144,20 3.8708266,18.4681548 2.0326819,15.9764033 L4.5360131,15.9764033 C6.00552007,17.3599765 7.94994499,18.138701 10.0785769,18.138701 C12.1521407,18.138701 14.1147373,17.3451938 15.5994373,15.9764033 L18.124472,15.9764033 Z M15.5994373,15.9764033 L18.124472,15.9764033 C16.2917775,13.5353256 13.3501749,11.9528067 10.0785769,11.9528067 C6.77090144,11.9528067 3.8708266,13.4846519 2.0326819,15.9764033 L4.5360131,15.9764033 C6.00552007,14.5928301 7.94994499,13.8141057 10.0785769,13.8141057 C12.1521407,13.8141057 14.1147373,14.6076128 15.5994373,15.9764033 Z M18.124472,15.9764033 C16.2917775,13.5353256 13.3501749,11.9528067 10.0785769,11.9528067 C6.77090144,11.9528067 3.8708266,13.4846519 2.0326819,15.9764033 L4.5360131,15.9764033 C6.00552007,14.5928301 7.94994499,13.8141057 10.0785769,13.8141057 C12.1521407,13.8141057 14.1147373,14.6076128 15.5994373,15.9764033 L18.124472,15.9764033 Z M10.0785769,12.8834562 C7.88436815,12.8834562 6.11299824,11.1118004 6.11299824,8.93510917 C6.11299824,6.7584179 7.88436815,4.98676216 10.0785769,4.98676216 C12.2727857,4.98676216 14.0441557,6.7584179 14.0441557,8.93510917 C14.0441557,11.1118004 12.2727857,12.8834562 10.0785769,12.8834562 Z M10.0785769,11.0221572 C11.217087,11.0221572 12.1474195,10.0916745 12.1474195,8.93510917 C12.1474195,7.77854381 11.217087,6.84806117 10.0785769,6.84806117 C8.9400669,6.84806117 8.00973437,7.77854381 8.00973437,8.93510917 C8.00973437,10.0916745 8.9400669,11.0221572 10.0785769,11.0221572 Z" id="Combined-Shape" fill-rule="nonzero"></path>
                    <path d="M20,9.983742 C20,10.4977255 19.5754012,10.9143915 19.0516319,10.9143915 C18.5278627,10.9143915 18.1032639,10.4977255 18.1032639,9.983742 C18.1032639,9.45036733 18.0520961,8.92408895 17.9513898,8.40969901 C17.2108907,4.6273591 13.8871942,1.861299 10,1.861299 C6.12525256,1.861299 2.80904087,4.60991182 2.05521275,8.3763459 C1.95014383,8.90131325 1.89673613,9.43881859 1.89673613,9.983742 C1.89673613,10.4977255 1.47213729,10.9143915 0.948368066,10.9143915 C0.424598846,10.9143915 0,10.4977255 0,9.983742 C0,9.31825594 0.0653441803,8.66061956 0.194034145,8.01763178 C1.12063812,3.38793879 5.208199,0 10,0 C14.8071621,0 18.9038585,3.4093692 19.8140616,8.0585279 C19.9374002,8.68851981 20,9.33238012 20,9.983742 Z" id="Oval-7" opacity="0.5"></path>
                </g>
            </g>
        </g>
    </g>
</svg>