<?xml version="1.0" encoding="UTF-8"?>
<svg width="20px" height="20px" viewBox="0 0 20 20" version="1.1" xmlns="http://www.w3.org/2000/svg" xmlns:xlink="http://www.w3.org/1999/xlink">
    <!-- Generator: Sketch 49.3 (51167) - http://www.bohemiancoding.com/sketch -->
    <title>Group 52 Copy 2</title>
    <desc>Created with Sketch.</desc>
    <defs></defs>
    <g id="Page-1" stroke="none" stroke-width="1" fill="none" fill-rule="evenodd">
        <g id="Artboard-4-Copy" transform="translate(-320.000000, -12.000000)" fill="#EC193A">
            <g id="Group-52-Copy-2" transform="translate(320.000000, 12.000000)">
                <g id="Group-18">
                    <path d="M12.203499,12.2155052 C13.2524474,11.5050156 13.943662,10.3042583 13.943662,8.94506079 C13.943662,6.76974689 12.1741931,5 10.0005053,5 C7.82580686,5 6.05734858,6.76974689 6.05734858,8.94506079 C6.05734858,10.3002724 6.74452094,11.4970438 7.7884166,12.2075334 C5.43384071,12.7296884 3.4036506,14.0669634 2,15.9792068 C3.82808059,18.4694081 6.71117287,20 10.0005053,20 C13.253458,20 16.1779827,18.4195841 18,15.9792068 C16.6024127,14.107819 14.5510011,12.749618 12.203499,12.2155052" id="Fill-19"></path>
                    <path d="M18.746,10.944 C18.231,10.944 17.813,10.526 17.813,10.01 C17.813,9.478 17.763,8.947 17.663,8.432 C16.933,4.628 13.642,1.867 9.84,1.867 C6.054,1.867 2.766,4.613 2.023,8.398 C1.919,8.926 1.867,9.468 1.867,10.01 C1.867,10.526 1.449,10.944 0.934,10.944 C0.418,10.944 0,10.526 0,10.01 C0,9.348 0.065,8.685 0.192,8.039 C1.106,3.381 5.164,0 9.84,0 C14.536,0 18.597,3.398 19.496,8.08 C19.618,8.71 19.679,9.36 19.679,10.01 C19.679,10.526 19.261,10.944 18.746,10.944" id="Fill-21" opacity="0.5"></path>
                </g>
            </g>
        </g>
    </g>
</svg>