<svg width="122" height="122" xmlns="http://www.w3.org/2000/svg" version="1.1">
 <!-- Generator: Sketch 54 (76480) - https://sketchapp.com -->

 <title>22</title>
 <desc>Created with Sketch.</desc>
 <g>
  <title>background</title>
  <rect fill="none" id="canvas_background" height="763" width="1662" y="-1" x="-1"/>
 </g>
 <g>
  <title>Layer 1</title>
  <g fill-rule="evenodd" fill="none" id="Page-1">
   <g id="3.0-发起催债-选择类型">
    <g id="22">
     <rect rx="30" height="120" width="120" y="1" x="1" fill="#737373" fill-opacity="0.15" stroke-width="2" stroke="#FFFFFF" stroke-opacity="0.5" id="Rectangle-26"/>
     <g fill="#FFFFFF" id="分组-8">
      <g opacity="0.49" id="_公司">
       <path fill-rule="nonzero" stroke-width="0.4" stroke="#FFFFFF" id="形状" d="m61,66.166667l0,-38.333334l-13.125188,0l0,38.333334l13.125188,0zm-17.062745,0l0,-38.333334c0,-1.016663 0.414849,-1.991686 1.153284,-2.710576c0.738435,-0.718889 1.739968,-1.122757 2.784273,-1.122757l13.125188,0c2.174652,0 3.937556,1.716242 3.937556,3.833333l0,11.5l9.187632,0c1.044305,0 2.045838,0.403868 2.784273,1.122758c0.738435,0.718889 1.153284,1.693913 1.153284,2.710576l0,23l1.968778,0c1.087209,0.000162 1.968477,0.858235 1.968477,1.916666c0,1.058432 -0.881268,1.916505 -1.968477,1.916667l-38.063046,0c-1.087209,-0.000162 -1.968477,-0.858235 -1.968477,-1.916667c0,-1.058431 0.881268,-1.916504 1.968477,-1.916666l1.968778,0l0,0zm21.000301,-23l0,23l9.187632,0l0,-23l-9.187632,0z"/>
       <path opacity="0.5" id="Fill-1" d="m48.421939,52.4c-0.653268,0 -1.183457,-0.5376 -1.183457,-1.2c0,-0.6624 0.530189,-1.2 1.183457,-1.2l12.774374,0c0.653269,0 1.183458,0.5376 1.183458,1.2c0,0.6624 -0.530189,1.2 -1.183458,1.2l-12.774374,0z"/>
       <path opacity="0.5" id="Fill-1" d="m65.85977,61.4c-0.474593,0 -0.85977,-0.5376 -0.85977,-1.2c0,-0.6624 0.385177,-1.2 0.85977,-1.2l9.28046,0c0.474593,0 0.85977,0.5376 0.85977,1.2c0,0.6624 -0.385177,1.2 -0.85977,1.2l-9.28046,0z"/>
       <path opacity="0.5" id="Fill-1" d="m48.421939,39.4c-0.653268,0 -1.183457,-0.5376 -1.183457,-1.2c0,-0.6624 0.530189,-1.2 1.183457,-1.2l12.774374,0c0.653269,0 1.183458,0.5376 1.183458,1.2c0,0.6624 -0.530189,1.2 -1.183458,1.2l-12.774374,0z"/>
      </g>
      <text x="33" y="24" line-spacing="14" font-weight="400" font-size="14" font-family="PingFangSC-Medium, PingFang SC" opacity="0.8" id="企业催收">
       <tspan id="svg_1" y="300" x="0">企业催收</tspan>
      </text>
     </g>
    </g>
   </g>
  </g>
 </g>
</svg>