<?xml version="1.0" encoding="UTF-8"?>
<svg width="20px" height="19px" viewBox="0 0 20 19" version="1.1" xmlns="http://www.w3.org/2000/svg" xmlns:xlink="http://www.w3.org/1999/xlink">
    <!-- Generator: Sketch 51 (57462) - http://www.bohemiancoding.com/sketch -->
    <title>联系客服</title>
    <desc>Created with Sketch.</desc>
    <defs></defs>
    <g id="页面" stroke="none" stroke-width="1" fill="none" fill-rule="evenodd">
        <g id="我的" transform="translate(-31.000000, -532.000000)">
            <rect fill="#F9F9F9" x="0" y="0" width="375" height="667"></rect>
            <g id="联系客服" transform="translate(31.000000, 532.857143)" fill="#EC193A">
                <g>
                    <path d="M17.494577,12.6666667 C17.4472491,12.7512269 17.4127391,12.8408204 17.3900611,12.933434 C17.2835733,13.1226878 17.0498915,13.2243614 16.8290278,13.1468479 C16.7107079,13.1065811 16.6140801,13.0220209 16.5588641,12.9072606 C16.5056202,12.796527 16.4967462,12.6706933 16.5352002,12.5549264 L17.2244133,10.4872279 C17.2885033,10.2959607 17.467955,10.1661004 17.6700848,10.1661004 C17.7223427,10.1661004 17.7736147,10.1741538 17.8219286,10.1912671 C17.9402485,10.2315339 18.0358904,10.3160941 18.0920923,10.4298477 C18.1473082,10.5425947 18.1551962,10.6644017 18.1157563,10.7831886 L17.494577,12.6666667 Z M7.7509367,10.4872279 L8.43916387,12.5549264 C8.47761783,12.6706933 8.46972984,12.796527 8.4154999,12.9072606 C8.36028397,13.0220209 8.26464208,13.1065811 8.14533623,13.1468479 C7.92447249,13.2253681 7.69177677,13.1226878 7.5843029,12.9324273 C7.56655492,12.8569271 7.53796095,12.781427 7.499507,12.7039134 L6.85959377,10.7831886 C6.82015382,10.6644017 6.82804181,10.5425947 6.88325774,10.4298477 L6.88325774,10.4288411 C6.93847367,10.3160941 7.03510156,10.2315339 7.15342142,10.1912671 C7.38808913,10.1117403 7.6700848,10.2456273 7.7509367,10.4872279 Z M12.499507,2 C8.36422796,2 5,5.40455518 5,9.59028564 C5,10.8596955 5.32636561,12.1280987 5.90810491,13.1790613 C6.27391047,14.2803574 7.52119897,14.9044923 8.60086768,14.534038 C9.14218103,14.3498175 9.57897851,13.9602366 9.8313942,13.4407953 C10.0808519,12.9253806 10.1193059,12.3415125 9.93788207,11.7989178 L9.39065273,10.1580471 C9.05146914,9.13929785 7.96785644,8.51818296 6.93945967,8.73763684 C7.34766318,6.00855669 9.68546638,3.90864477 12.499507,3.90864477 C15.3135476,3.90864477 17.6513508,6.00855669 18.0605403,8.73763684 C17.0272136,8.5201963 15.9475449,9.13929785 15.6083613,10.1580471 L15.0621179,11.7989178 C14.8816801,12.3384925 14.9181621,12.9163206 15.1656478,13.4256952 C15.4170775,13.9431232 15.854861,14.3286775 16.3961743,14.5139046 C16.4947742,14.5481314 16.5923881,14.5702781 16.68803,14.5843715 L16.6199961,14.8320121 C16.5371722,15.1390462 16.3636364,15.3967535 16.1053047,15.596074 C15.855847,15.7883478 15.5531453,15.8890147 15.2277657,15.8890147 L13.1808322,15.8890147 C12.9836324,15.7400277 12.7400907,15.6584875 12.476829,15.6584875 C11.8379018,15.6584875 11.3182804,16.1879955 11.3182804,16.8403171 C11.3182804,17.4906254 11.8270558,18 12.476829,18 C12.7233287,18 12.9540525,17.9234931 13.1413922,17.7825595 L15.2277657,17.7825595 C15.9652928,17.7825595 16.680142,17.5459922 17.2392033,17.1151378 C17.8179846,16.6681767 18.2399921,16.0369951 18.4283179,15.3413867 L18.9084993,13.5827356 C18.9716032,13.475022 19.0199172,13.3723418 19.0297772,13.326035 C19.6647604,12.1915188 20,10.8999622 20,9.59028564 C20,5.40455518 16.634786,2 12.499507,2 Z" id="Fill-1"></path>
                    <path d="M0,6 C0,9.313 2.686,12 6,12 C9.314,12 12,9.313 12,6 C12,2.687 9.314,0 6,0 C2.686,0 0,2.687 0,6 Z" id="Clip-15-Copy" opacity="0.200000003"></path>
                </g>
            </g>
        </g>
    </g>
</svg>