<?xml version="1.0" encoding="UTF-8"?>
<svg width="20px" height="19px" viewBox="0 0 20 19" version="1.1" xmlns="http://www.w3.org/2000/svg" xmlns:xlink="http://www.w3.org/1999/xlink">
    <!-- Generator: Sketch 51 (57462) - http://www.bohemiancoding.com/sketch -->
    <title>案件列表</title>
    <desc>Created with Sketch.</desc>
    <defs></defs>
    <g id="页面" stroke="none" stroke-width="1" fill="none" fill-rule="evenodd">
        <g id="我的" transform="translate(-31.000000, -489.000000)">
            <rect fill="#F9F9F9" x="0" y="0" width="375" height="667"></rect>
            <g id="案件列表" transform="translate(31.000000, 489.714286)" fill="#EC193A">
                <g>
                    <path d="M0,6 C0,9.313 2.686,12 6,12 C9.314,12 12,9.313 12,6 C12,2.687 9.314,0 6,0 C2.686,0 0,2.687 0,6 Z" id="Clip-15-Copy" opacity="0.200000003"></path>
                    <g id="列表" transform="translate(6.000000, 3.352381)" stroke="#EC193A">
                        <path d="M4.20649573,2.60402116 C4.52198291,2.60402116 4.73230769,2.39569947 4.73230769,2.08321693 L4.73230769,0.520804233 C4.73230769,0.208321693 4.52198291,0 4.20649573,0 C3.89100855,0 3.68068376,0.208321693 3.68068376,0.520804233 L3.68068376,2.08321693 C3.68068376,2.39569947 3.89100855,2.60402116 4.20649573,2.60402116 Z M9.99042735,2.60402116 C10.3059145,2.60402116 10.5162393,2.39569947 10.5162393,2.08321693 L10.5162393,0.520804233 C10.5162393,0.208321693 10.3059145,0 9.99042735,0 C9.67494017,0 9.46461538,0.208321693 9.46461538,0.520804233 L9.46461538,2.08321693 C9.46461538,2.39569947 9.67494017,2.60402116 9.99042735,2.60402116 Z M12.6194872,13.0201058 C12.6194872,13.3325884 12.4091624,13.5409101 12.0936752,13.5409101 L1.5774359,13.5409101 C1.26194872,13.5409101 1.05162393,13.3325884 1.05162393,13.0201058 L1.05162393,5.20804233 L12.6194872,5.20804233 L12.6194872,13.0201058 Z M12.304,1.04160847 L11.5678632,1.04160847 C11.2523761,1.04160847 11.0420513,1.24993016 11.0420513,1.5624127 C11.0420513,1.87489524 11.2523761,2.08321693 11.5678632,2.08321693 L12.304,2.08321693 C12.4091624,2.08321693 12.6194872,2.29153862 12.6194872,2.60402116 L12.6194872,4.16643386 L1.05162393,4.16643386 L1.05162393,2.60402116 C1.05162393,2.29153862 1.26194872,2.08321693 1.5774359,2.08321693 L2.62905983,2.08321693 C2.94454701,2.08321693 3.15487179,1.87489524 3.15487179,1.5624127 C3.15487179,1.24993016 2.94454701,1.04160847 2.62905983,1.04160847 L1.5774359,1.04160847 C0.736136752,1.04160847 0,1.77073439 0,2.60402116 L0,13.0201058 C0,13.8533926 0.736136752,14.5825185 1.5774359,14.5825185 L12.0936752,14.5825185 C12.9349744,14.5825185 13.6711111,13.8533926 13.6711111,13.0201058 L13.6711111,2.60402116 C13.6711111,1.77073439 13.0401368,1.04160847 12.304,1.04160847 Z M5.78393162,2.08321693 L8.41299145,2.08321693 C8.72847863,2.08321693 8.93880342,1.87489524 8.93880342,1.5624127 C8.93880342,1.24993016 8.72847863,1.04160847 8.41299145,1.04160847 L5.78393162,1.04160847 C5.46844444,1.04160847 5.25811966,1.24993016 5.25811966,1.5624127 C5.25811966,1.87489524 5.46844444,2.08321693 5.78393162,2.08321693 Z" id="Shape" stroke-width="0.6" fill-rule="nonzero"></path>
                        <polygon id="Path" stroke-width="0.4" points="5 7 5.91204482 7 6.9968254 9.12119514 8.08160598 7 8.99365079 7 7.64631186 9.42521008 8.56526611 9.42521008 8.56526611 9.85359477 7.40448179 9.85359477 7.39757236 10.4547152 8.56526611 10.4547152 8.56526611 10.8830999 7.39757236 10.8830999 7.39757236 11.9333333 6.59607843 11.9333333 6.59607843 10.8830999 5.43529412 10.8830999 5.43529412 10.4547152 6.59607843 10.4547152 6.59607843 9.8605042 5.43529412 9.85359477 5.43529412 9.42521008 6.34733894 9.42521008"></polygon>
                    </g>
                </g>
            </g>
        </g>
    </g>
</svg>