<svg t="1673335863212" class="icon" viewBox="0 0 1024 1024" version="1.1" xmlns="http://www.w3.org/2000/svg" p-id="12292" width="200" height="200"><path d="M851.139048 443.977143c-6.826667 0-12.190476-5.36381-12.190477-12.190476V202.118095h-268.190476v109.714286c0 6.826667-5.36381 12.190476-12.190476 12.190476s-12.190476-5.36381-12.190476-12.190476v-121.904762c0-6.826667 5.36381-12.190476 12.190476-12.190476h292.571429c6.826667 0 12.190476 5.36381 12.190476 12.190476v241.859048c0 6.826667-5.36381 12.190476-12.190476 12.190476z" p-id="12293"></path><path d="M740.693333 324.022857h-73.142857c-6.826667 0-12.190476-5.36381-12.190476-12.190476v-121.904762c0-6.826667 5.36381-12.190476 12.190476-12.190476h73.142857c6.826667 0 12.190476 5.36381 12.190477 12.190476v121.904762c0 6.826667-5.607619 12.190476-12.190477 12.190476z m-60.952381-24.380952h48.761905v-97.52381h-48.761905v97.52381z" p-id="12294"></path><path d="M704.853333 444.464762c-6.826667 0-12.190476-5.36381-12.190476-12.190476V324.266667h-268.190476v108.007619c0 6.826667-5.36381 12.190476-12.190476 12.190476s-12.190476-5.36381-12.190476-12.190476V312.07619c0-6.826667 5.36381-12.190476 12.190476-12.190476h292.571428c6.826667 0 12.190476 5.36381 12.190477 12.190476v120.198096c0 6.582857-5.36381 12.190476-12.190477 12.190476z" p-id="12295"></path><path d="M594.407619 443.977143c-6.826667 0-12.190476-5.36381-12.190476-12.190476v-107.76381h-48.761905v107.76381c0 6.826667-5.36381 12.190476-12.190476 12.190476s-12.190476-5.36381-12.190476-12.190476v-119.954286c0-6.826667 5.36381-12.190476 12.190476-12.190476h73.142857c6.826667 0 12.190476 5.36381 12.190476 12.190476v119.954286c0 6.826667-5.607619 12.190476-12.190476 12.190476zM794.331429 828.952381H467.139048c-6.826667 0-12.190476-5.36381-12.190477-12.190476s5.36381-12.190476 12.190477-12.190476h327.192381c6.826667 0 12.190476 5.36381 12.190476 12.190476s-5.36381 12.190476-12.190476 12.190476z" p-id="12296"></path><path d="M286.96381 828.952381H246.247619c-5.851429 0-10.971429-4.144762-11.946667-9.996191L143.36 333.04381H83.139048c-5.851429 0-10.971429-4.144762-11.946667-9.996191l-14.872381-78.262857c-0.731429-3.413333 0.24381-7.314286 2.681905-9.996191 2.194286-2.681905 5.607619-4.388571 9.264762-4.388571h141.409523c5.851429 0 10.971429 4.144762 11.946667 9.99619l87.771429 483.718096H955.733333c6.826667 0 12.190476 5.36381 12.190477 12.190476s-5.36381 12.190476-12.190477 12.190476H299.154286c-5.851429 0-10.971429-4.144762-11.946667-9.99619l-87.771429-483.718096H82.895238l10.24 53.881905H153.6c5.851429 0 10.971429 4.144762 11.946667 9.996191L256.24381 804.571429h30.72c6.826667 0 12.190476 5.36381 12.190476 12.190476s-5.607619 12.190476-12.190476 12.190476z" p-id="12297"></path><path d="M378.88 943.786667c-38.278095 0-69.485714-31.207619-69.485714-69.485715S340.601905 804.571429 378.88 804.571429s69.485714 31.207619 69.485714 69.485714-31.207619 69.729524-69.485714 69.729524z m0-114.834286c-24.868571 0-45.104762 20.23619-45.104762 45.104762s20.23619 45.104762 45.104762 45.104762 45.104762-20.23619 45.104762-45.104762S403.748571 828.952381 378.88 828.952381zM885.272381 943.786667a69.607619 69.607619 0 0 1 0-139.215238c38.278095 0 69.485714 31.207619 69.485714 69.485714s-31.207619 69.729524-69.485714 69.729524z m0-114.834286c-24.868571 0-45.104762 20.23619-45.104762 45.104762s20.23619 45.104762 45.104762 45.104762 45.104762-20.23619 45.104762-45.104762S910.140952 828.952381 885.272381 828.952381z" p-id="12298"></path><path d="M925.988571 669.744762h-553.447619c-6.826667 0-12.190476-5.36381-12.190476-12.190476s5.36381-12.190476 12.190476-12.190476h542.72l26.575238-201.142858H342.552381c-6.826667 0-12.190476-5.36381-12.190476-12.190476s5.36381-12.190476 12.190476-12.190476H955.733333c3.413333 0 6.826667 1.462857 9.264762 4.144762 2.438095 2.681905 3.413333 6.095238 2.925715 9.508571l-29.744762 225.52381c-0.975238 6.339048-6.095238 10.727619-12.190477 10.727619z" p-id="12299"></path><path d="M825.295238 557.104762h-24.380952c-6.826667 0-12.190476-5.36381-12.190476-12.190476s5.36381-12.190476 12.190476-12.190476h24.380952c6.826667 0 12.190476 5.36381 12.190476 12.190476s-5.36381 12.190476-12.190476 12.190476z m-97.523809 0h-24.380953c-6.826667 0-12.190476-5.36381-12.190476-12.190476s5.36381-12.190476 12.190476-12.190476h24.380953c6.826667 0 12.190476 5.36381 12.190476 12.190476s-5.36381 12.190476-12.190476 12.190476z" p-id="12300"></path></svg>