<svg t="1673336125268" class="icon" viewBox="0 0 1024 1024" version="1.1" xmlns="http://www.w3.org/2000/svg" p-id="13441" width="200" height="200"><path d="M503.466667 499.2L597.333333 405.333333l59.733334 59.733334-145.066667 145.066666-4.266667 4.266667-110.933333-110.933333 59.733333-59.733334 46.933334 55.466667zM512 170.666667c110.933333 59.733333 204.8 110.933333 298.666667 162.133333 0 213.333333-98.133333 430.933333-298.666667 563.2-200.533333-132.266667-298.666667-349.866667-298.666667-563.2C298.666667 281.6 401.066667 230.4 512 170.666667z m-55.466667 115.2l-34.133333 17.066666c-12.8 8.533333-21.333333 12.8-29.866667 17.066667-42.666667 21.333333-72.533333 38.4-102.4 55.466667 4.266667 166.4 85.333333 320 221.866667 418.133333 136.533333-98.133333 213.333333-251.733333 221.866667-418.133333-21.333333-12.8-46.933333-25.6-72.533334-38.4-25.6-12.8-110.933333-59.733333-149.333333-81.066667-17.066667 12.8-34.133333 21.333333-55.466667 29.866667z" fill="#444444" p-id="13442"></path></svg>