<svg t="1673336161079" class="icon" viewBox="0 0 1024 1024" version="1.1" xmlns="http://www.w3.org/2000/svg" p-id="14404" width="200" height="200"><path d="M512 1024c-56.096-89.344-97.184-137.728-123.296-145.184C201.216 825.248 64 652.672 64 448 64 200.576 264.576 0 512 0s448 200.576 448 448c0 203.168-135.232 374.72-320.608 429.632-26.88 7.968-69.376 56.768-127.392 146.368z m44-586.688h85.888c14.4 0 26.112-11.584 26.112-25.92a26.016 26.016 0 0 0-26.112-25.92h-70.144l37.28-64.064a25.824 25.824 0 0 0-9.568-35.424 26.24 26.24 0 0 0-35.712 9.504l-35.84 61.568-35.84-61.568a26.24 26.24 0 0 0-35.68-9.504 25.824 25.824 0 0 0-9.6 35.424l37.344 64.064H414.08a26.016 26.016 0 0 0-26.112 25.92c0 14.336 11.712 25.92 26.112 25.92h85.888v25.952h-85.888a26.016 26.016 0 0 0-26.112 25.92c0 14.304 11.712 25.92 26.112 25.92h85.888v49.984c0 15.36 12.544 27.808 28 27.808a27.904 27.904 0 0 0 28-27.808v-49.984h85.888c14.4 0 26.112-11.616 26.112-25.92a26.016 26.016 0 0 0-26.112-25.92h-85.888v-25.92z m224-147.2v-0.064h20.48a51.072 51.072 0 0 0 48.224-34.144 50.592 50.592 0 0 0-31.648-64.448L546.24 99.008a56.416 56.416 0 0 0-36.448 0l-270.848 92.48c-20.576 7.04-34.4 26.24-34.432 47.84a50.88 50.88 0 0 0 51.04 50.752h20.48v302.816H248c-30.912 0-56 24.864-56 55.552S216.864 704 247.552 704h560.896c30.688 0 55.552-24.864 55.552-55.552 0-30.72-25.088-55.552-56-55.552h-28V290.08zM528 620.64c-108.224 0-195.968-87.04-196-194.464 0-107.392 87.744-194.464 196-194.464s196.032 87.072 196 194.464c0 107.392-87.744 194.464-196 194.464z" fill="#515151" p-id="14405"></path></svg>