<svg t="1673336283892" class="icon" viewBox="0 0 1024 1024" version="1.1" xmlns="http://www.w3.org/2000/svg" p-id="15659" width="200" height="200"><path d="M900.134925 324.278571l-65.447595 0-480.391095-194.452737c-15.305591-6.194072-32.68133-5.779633-47.674812 1.139963-14.992459 6.919597-26.581402 19.87363-31.797194 35.540448l-13.210883 39.685861-27.142174-4.397147c-32.513508-5.263887-63.380516 16.877389-68.804039 49.369408l-12.20088 73.114205-26.920116 0c-33.096792 0-60.023048 26.926256-60.023048 60.023048l0 466.397383c0 33.096792 26.926256 60.023048 60.023048 60.023048L900.134925 910.72205c33.096792 0 60.023048-26.926256 60.023048-60.023048L960.157973 384.30162C960.157973 351.204827 933.231717 324.278571 900.134925 324.278571zM312.791959 179.1451c1.763157-5.299703 5.5279-9.507538 10.598382-11.847839 5.071506-2.342348 10.714016-2.475378 15.891945-0.379647L728.038358 324.278571l-463.557708 0L312.791959 179.1451zM205.139124 257.751389c1.806135-10.830673 12.079106-18.212804 22.933315-16.45681l20.738323 3.359514-26.505677 79.624479-28.268834 0L205.139124 257.751389zM920.142607 850.699002c0 11.031241-8.976442 20.007683-20.007683 20.007683L126.547161 870.706685c-11.032264 0-20.007683-8.976442-20.007683-20.007683L106.539478 384.30162c0-11.032264 8.975419-20.007683 20.007683-20.007683L900.134925 364.293937c11.031241 0 20.007683 8.975419 20.007683 20.007683L920.142607 850.699002z" fill="#272636" p-id="15660"></path><path d="M512.807389 393.70785c-123.722836 0-224.379327 100.655468-224.379327 224.378304s100.656491 224.38035 224.379327 224.38035 224.378304-100.657514 224.378304-224.38035S636.530225 393.70785 512.807389 393.70785zM328.442404 618.087177c0-95.931886 73.65451-174.972057 167.382195-183.573969l0 26.41358c-47.517223 9.112542-83.428108 48.942689-83.587744 96.610338-0.130983 5.16565 0.223081 33.653471 22.323425 56.701396 17.368576 18.116613 42.651402 27.301809 75.144444 27.301809 27.828812 0 48.598858 6.441713 60.063981 18.628266 11.504008 12.227486 11.189853 27.192316 11.114129 28.901237-0.074701 0.672312-0.064468 0.921999-0.064468 1.64957 0 24.556279-29.437449 45.300742-64.282049 45.300742-35.44528 0-64.283072-26.412556-64.283072-58.877969 0-11.04966-8.958022-20.007683-20.007683-20.007683-11.04966 0-20.007683 8.958022-20.007683 20.007683 0 47.808866 35.96512 87.798649 83.588767 96.931656l0 27.589358C402.097938 793.06128 328.442404 714.02111 328.442404 618.087177zM535.733541 801.027719l0-26.426883c19.707854-2.956332 37.942147-10.438747 52.642964-21.808702 20.716834-16.019859 32.220842-37.783535 32.452109-61.349253 0.369414-6.375198 0.569982-34.138518-21.161972-57.883315-19.455097-21.258163-49.722448-32.035624-89.961918-32.035624-20.935822 0-36.396955-4.931313-45.949518-14.659885-11.17348-11.375072-11.508102-26.838252-11.513218-28.284183 0.01842-0.314155 0.010233-0.328481 0.010233-0.721431 0-32.465412 28.837792-58.877969 64.283072-58.877969 35.44528 0 64.282049 26.412556 64.282049 58.877969 0 11.04966 8.958022 20.007683 20.007683 20.007683s20.007683-8.958022 20.007683-20.007683c0-48.312332-36.728506-88.63776-85.099167-97.206926l0-25.50386c90.8788 11.322883 161.436786 89.044012 161.436786 182.939519C697.170327 711.983707 626.612341 789.704836 535.733541 801.027719z" fill="#272636" p-id="15661"></path></svg>