<svg t="1673336316246" class="icon" viewBox="0 0 1024 1024" version="1.1" xmlns="http://www.w3.org/2000/svg" p-id="16421" width="200" height="200"><path d="M833.536 505.856l-29.184-29.184L902.656 378.88 655.36 131.584l-42.496 42.496-29.184-29.184 56.832-56.832c8.192-8.192 20.992-8.192 29.184 0l276.48 276.48c4.096 4.096 6.144 9.216 6.144 14.336s-2.048 10.752-6.144 14.336l-112.64 112.64zM379.392 951.296c-5.12 0-10.24-2.048-14.336-6.144l-275.968-275.968c-8.192-8.192-8.192-20.992 0-29.184l58.368-58.368 29.184 29.184-44.032 44.032 247.296 247.296 104.96-104.96 29.184 29.184L394.24 946.176c-4.608 3.584-9.728 5.12-14.848 5.12z" fill="#333333" p-id="16422"></path><path d="M728.064 582.656c-2.56 0-5.632-0.512-8.192-1.536-10.24-4.608-14.848-16.896-10.24-27.136 16.896-37.888 25.088-78.336 25.088-119.808 0-164.864-134.144-298.496-298.496-298.496-39.424 0-77.824 7.68-113.664 22.528-10.24 4.096-22.528-0.512-26.624-11.264-4.096-10.24 0.512-22.528 11.264-26.624 40.96-16.896 84.48-25.6 129.536-25.6 187.392 0 339.456 152.064 339.456 339.456 0 47.616-9.728 93.696-28.672 136.704-4.096 7.168-11.264 11.776-19.456 11.776zM436.224 773.12c-187.392 0-339.456-152.064-339.456-339.456 0-52.736 11.776-103.424 34.816-150.016 5.12-10.24 17.408-14.336 27.648-9.216 10.24 5.12 14.336 17.408 9.216 27.648-20.48 40.96-30.72 85.504-30.72 132.096 0 164.864 134.144 298.496 298.496 298.496 44.032 0 86.528-9.216 125.952-27.648 10.24-4.608 22.528-0.512 27.136 9.728 4.608 10.24 0.512 22.528-9.728 27.136-45.056 20.48-93.696 31.232-143.36 31.232z" fill="#333333" p-id="16423"></path><path d="M332.288 503.808L135.68 307.2c-8.192-8.192-8.192-20.992 0-29.184 8.192-8.192 20.992-8.192 29.184 0L332.8 445.952l130.56-130.56-163.328-162.304c-8.192-8.192-8.192-20.992 0-29.184 8.192-8.192 20.992-8.192 29.184 0l191.488 191.488-188.416 188.416zM785.92 911.872c-34.304 0-68.096-12.8-94.208-38.912L556.544 737.28c-8.192-8.192-8.192-20.992 0-29.184 8.192-8.192 20.992-8.192 29.184 0l135.168 135.168c35.84 35.84 94.208 35.84 130.048 0s35.84-94.208 0-130.048l-137.216-137.216c-8.192-8.192-8.192-20.992 0-29.184 8.192-8.192 20.992-8.192 29.184 0l137.216 137.216c51.712 51.712 51.712 136.192 0 188.416-26.112 26.112-60.416 39.424-94.208 39.424z" fill="#333333" p-id="16424"></path><path d="M382.40768 554.37824l188.2624-188.2624 28.95872 28.96896-188.2624 188.25728z" fill="#EB4446" p-id="16425"></path><path d="M860.16 640H460.8V373.76c0-33.792 27.648-61.44 61.44-61.44h399.36v266.24c0 33.792-27.648 61.44-61.44 61.44z" fill="#333333" opacity=".18" p-id="16426"></path></svg>