<svg t="1673336363924" class="icon" viewBox="0 0 1024 1024" version="1.1" xmlns="http://www.w3.org/2000/svg" p-id="17595" width="200" height="200"><path d="M288.01504 736m-96 0a96 96 0 1 0 192 0 96 96 0 1 0-192 0Z" fill="#515151" p-id="17596"></path><path d="M736.01504 736m-96 0a96 96 0 1 0 192 0 96 96 0 1 0-192 0Z" fill="#515151" p-id="17597"></path><path d="M1006.31904 515.36l-51.456-25.728-42.464-146.56a32 32 0 0 0-30.72-23.072H672.01504V256h52.448a32 32 0 0 0 0-64H512.01504a32 32 0 0 0-26.624 14.24L430.89504 288H32.01504a32 32 0 0 0-28.64 46.304l128 256A32 32 0 0 0 160.01504 608h480a32 32 0 0 0 32-32v-192h60.416l65.024 150.368a16 16 0 0 0 14.72 9.632h108.288l39.552 19.776V672h-113.792c-22.208-38.08-63.04-64-110.208-64s-88 25.92-110.208 64h-227.584c-22.208-38.08-63.04-64-110.208-64s-88 25.92-110.208 64H64.01504a32 32 0 0 0 0 64h96c0 70.592 57.408 128 128 128s128-57.408 128-128h192c0 70.592 57.408 128 128 128s128-57.408 128-128h128a32 32 0 0 0 32-32v-160a32 32 0 0 0-17.696-28.64zM179.79104 544l-96-192h90.336l96 192H179.79104z m126.112 0l-96-192h92.224l96 192H305.90304z m128 0l-96-192h92.224l96 192h-92.224zM608.01504 544h-46.08l-98.144-196.256a31.904 31.904 0 0 0 10.848-9.984L529.13504 256H608.01504v288z m214.656-32l-55.36-128H857.61504l37.088 128h-72.032zM288.01504 800c-35.296 0-64-28.704-64-64s28.704-64 64-64 64 28.704 64 64-28.704 64-64 64z m448 0c-35.296 0-64-28.704-64-64s28.704-64 64-64 64 28.704 64 64-28.704 64-64 64z" fill="#515151" p-id="17598"></path></svg>