<svg t="1673336393957" class="icon" viewBox="0 0 1024 1024" version="1.1" xmlns="http://www.w3.org/2000/svg" p-id="18772" width="200" height="200"><path d="M64.341272 231.942119h224.827086V114.032922c0-24.084487 19.668929-43.753416 43.753415-43.753416h358.155431c24.084487 0 43.753416 19.668929 43.753415 43.753416V231.942119h224.827086c32.507303 0 59.160283 26.651957 59.160283 59.15926v603.458832c0 32.508326-26.65298 59.160283-59.160283 59.160283H64.341272c-32.532886 0-59.160283-26.651957-59.160283-59.160283V291.101379c0.001023-32.507303 26.627397-59.15926 59.160283-59.15926z m356.961234 31.531071v51.302331h65.065772v65.064748h51.264468v-65.064748h65.065771v-51.302331h-65.065771V198.408442h-51.264468v65.064748h-65.065772zM190.594492 729.868617c-6.931862 0-12.607107 5.649662-12.607107 12.633713v86.582788c0 6.930839 5.675245 12.581525 12.607107 12.581525h86.609393c6.931862 0 12.581525-5.649662 12.581525-12.581525v-86.582788c0-6.983028-5.649662-12.633713-12.581525-12.633713h-86.609393z m278.107463 0c-6.931862 0-12.607107 5.649662-12.607107 12.633713v86.582788c0 6.930839 5.675245 12.581525 12.607107 12.581525h86.59609c6.931862 0 12.581525-5.649662 12.581525-12.581525v-86.582788c0-6.983028-5.649662-12.633713-12.581525-12.633713h-86.59609z m278.095183 0c-6.932886 0-12.582548 5.649662-12.582548 12.633713v86.582788c0 6.930839 5.649662 12.581525 12.582548 12.581525h86.581764c6.932886 0 12.633713-5.649662 12.633713-12.581525v-86.582788c0-6.983028-5.699804-12.633713-12.633713-12.633713h-86.581764zM190.594492 512.282432c-6.931862 0-12.607107 5.648639-12.607107 12.581525v86.582787c0 6.932886 5.675245 12.633713 12.607107 12.633713h86.609393c6.931862 0 12.581525-5.699804 12.581525-12.633713v-86.582787c0-6.932886-5.649662-12.581525-12.581525-12.581525h-86.609393z m278.107463 0c-6.931862 0-12.607107 5.648639-12.607107 12.581525v86.582787c0 6.932886 5.675245 12.633713 12.607107 12.633713h86.59609c6.931862 0 12.581525-5.699804 12.581525-12.633713v-86.582787c0-6.932886-5.649662-12.581525-12.581525-12.581525h-86.59609z m278.095183 0c-6.932886 0-12.582548 5.648639-12.582548 12.581525v86.582787c0 6.932886 5.649662 12.633713 12.582548 12.633713h86.581764c6.932886 0 12.633713-5.699804 12.633713-12.633713v-86.582787c0-6.932886-5.699804-12.581525-12.633713-12.581525h-86.581764z" fill="#515151" p-id="18773"></path></svg>