<svg t="1673340830716" class="icon" viewBox="0 0 1024 1024" version="1.1" xmlns="http://www.w3.org/2000/svg" p-id="23672" width="200" height="200"><path d="M352.6144 816.896V300.3136h158.848V512l79.232-52.9408L669.9008 512v-211.6864h105.9072v463.616c0 53.76-25.856 52.9664-39.6032 52.9664-259.5072 0.4096-383.5904 0-383.5904 0z" fill="#515151" p-id="23673"></path><path d="M766.5152 226.3552a9.0112 9.0112 0 0 1-6.8608 14.5408H311.7824a22.2208 22.2208 0 0 0-23.04 23.04c-0.4096 8.0896 0 12.928 0 18.176 0 11.3408 8.8832 19.0208 23.8592 19.0208h4.8384a8.96 8.96 0 0 1 8.8832 8.7552v498.4064a8.8064 8.8064 0 0 1-9.2928 8.8832c-53.76-2.304-56.9856-28.5696-56.9856-51.2V248.576c0 2.0224-1.6128-39.7312 39.6032-39.7312h436.9664c12.544-1.1008 21.8112 6.9888 29.9008 17.5104z" fill="#515151" p-id="23674"></path><path d="M538.1376 274.048h105.9072v185.3952a1983.872 1983.872 0 0 0-52.9664-39.6032s-32.7168 23.8592-52.9408 39.6032v-185.3952z" fill="#515151" p-id="23675"></path></svg>