<svg t="1673340871766" class="icon" viewBox="0 0 1024 1024" version="1.1" xmlns="http://www.w3.org/2000/svg" p-id="24763" width="200" height="200"><path d="M586.133333 242.432c66.901333 0 121.28-54.378667 121.28-121.237333C707.349333 54.378667 652.906667 0 586.133333 0c-66.816 0-121.194667 54.378667-121.194667 121.216C464.917333 188.053333 519.296 242.432 586.133333 242.432zM586.133333 42.709333c43.306667 0 78.528 35.221333 78.528 78.485333 0 43.285333-35.136 78.506667-78.528 78.506667-43.221333 0-78.464-35.221333-78.464-78.506667C507.648 77.930667 542.826667 42.709333 586.133333 42.709333z" p-id="24764"></path><path d="M885.674667 932.394667l-203.264-293.653333 0-141.504 38.464 38.464c1.621333 1.664 3.498667 3.008 5.568 4.010667l59.541333 29.781333c8.469333 4.245333 17.749333 6.421333 27.093333 6.421333 7.872 0 15.68-1.514667 23.082667-4.629333 16.277333-6.698667 28.693333-20.096 34.218667-36.714667 9.344-28.437333-3.584-59.904-30.293333-73.301333l-64.448-32.213333-96.704-145.066667c-0.448-0.618667-1.045333-0.938667-1.472-1.493333-0.917333-1.109333-1.877333-2.048-2.986667-2.965333-1.130667-0.896-2.218667-1.664-3.434667-2.325333-1.152-0.618667-2.282667-1.066667-3.541333-1.450667-1.429333-0.448-2.901333-0.746667-4.373333-0.896-0.682667-0.064-1.322667-0.405333-1.984-0.405333l-149.781333 0c-4.992 0-9.834667 1.749333-13.674667 4.928l-149.781333 124.842667c-2.24 1.898667-4.074667 4.202667-5.418667 6.869333l-63.125333 77.738667c-2.986667-1.088-5.845333-1.706667-8.896-1.472-11.861333 0.597333-22.805333 5.802667-30.613333 14.336l-24.832-18.666667c-7.104-5.354667-15.872-7.616-24.682667-6.421333-8.832 1.237333-16.64 5.824-22.016 12.949333l-76.224 101.205333c-5.397333 7.125333-7.68 15.936-6.4 24.810667 1.258667 8.832 5.888 16.618667 12.949333 21.888l164.096 123.584c5.866667 4.458667 12.885333 6.805333 20.117333 6.805333 1.536 0 3.093333-0.106667 4.629333-0.32 8.853333-1.237333 16.661333-5.802667 22.058667-12.949333l76.309333-101.269333c11.008-14.72 8-35.669333-6.613333-46.592l-24.896-18.794667c5.354667-8.810667 7.509333-19.114667 6.037333-29.610667-0.362667-2.368-1.109333-4.48-2.112-6.506667l68.416-64.874667 63.36-31.68 0 186.666667-43.968 131.904L324.053333 773.824c-32.405333 0-58.794667 26.304-58.794667 58.816 0 32.448 26.368 58.858667 58.794667 58.858667l212.16 0c6.72 0 13.077333-3.221333 17.088-8.597333l62.890667-83.818667 177.472 204.8C804.714667 1016.682667 820.757333 1024 837.674667 1024c15.594667 0 30.293333-6.037333 41.322667-17.109333C898.922667 986.965333 901.76 955.648 885.674667 932.394667zM682.368 366.506667l60.8 91.114667c2.005333 3.050667 4.885333 5.546667 8.170667 7.210667l69.589333 34.730667c7.744 3.925333 11.626667 13.162667 8.789333 21.461333-2.218667 6.656-7.210667 9.578667-10.005333 10.730667-2.730667 1.28-8.426667 2.645333-14.677333-0.469333l-56.448-28.16-66.218667-66.197333L682.368 366.506667zM281.002667 721.472l-149.333333-112.448 65.002667-86.336 51.306667 38.613333 8.170667-10.432c3.904 12.714667 12.714667 23.914667 25.514667 30.357333 6.549333 3.285333 13.696 4.714667 20.885333 4.821333l-7.872 10.432 51.306667 38.72L281.002667 721.472zM525.525333 848.768l-201.493333 0c-8.874667 0-16.064-7.210667-16.064-16.085333s7.189333-16.064 16.064-16.064l137.301333 0c9.194667 0 17.365333-5.930667 20.266667-14.677333l38.08-114.218667 67.882667 78.314667L525.525333 848.768zM848.768 976.704c-2.986667 2.944-6.869333 4.565333-11.114667 4.565333-2.666667 0-7.68-0.704-11.818667-5.397333L532.608 637.461333l-0.021333-216.746667c0-7.424-3.861333-14.293333-10.133333-18.176-6.293333-3.882667-14.165333-4.245333-20.778667-0.938667l-99.84 49.941333c-3.648 1.813333-6.677333 4.650667-8.768 8.128l-82.432 80.448c-2.56 4.288-6.997333 4.373333-9.92 2.965333-3.754667-1.856-5.290667-6.506667-3.413333-10.24l81.28-98.517333 140.394667-116.992 120.64 0 0 328.106667c0 4.330667 1.322667 8.576 3.818667 12.16l207.125333 299.114667C854.826667 962.965333 854.101333 971.370667 848.768 976.704z" p-id="24765"></path></svg>