<svg t="1673340905409" class="icon" viewBox="0 0 1024 1024" version="1.1" xmlns="http://www.w3.org/2000/svg" p-id="25181" width="200" height="200"><path d="M584.901989 646.764062a31.756236 31.756236 0 0 0-2.751212 12.924298c0 8.317617 3.263065 16.251345 9.149379 22.095004l63.107256 63.107256c22.926766 22.905439 63.043274 23.033402 86.098003 0l206.980709-206.938054a61.059842 61.059842 0 0 0-0.063982-86.140658l-63.107256-63.107256a30.604566 30.604566 0 0 0-36.938752-5.310478L581.255034 117.337054a31.777564 31.777564 0 0 0 3.774918-14.929056 30.711203 30.711203 0 0 0-9.213361-22.137659L512.709336 17.227065c-23.033402-23.033402-63.107256-22.905439-86.076676 0l-206.916727 206.916727a60.782588 60.782588 0 0 0 0 86.098003l63.107255 63.107256a31.841545 31.841545 0 0 0 34.997975 6.398167l75.455718 75.391737L23.612108 824.889037a45.576278 45.576278 0 0 0-13.52146 32.502689c0 12.241827 4.798625 23.822509 13.52146 32.396054l62.190185 62.275494a45.896186 45.896186 0 0 0 64.92007-0.063982l369.728755-369.750082 64.450871 64.514852zM366.084671 334.490849l169.487449-169.423467 264.137669 264.158996-169.551431 169.40214-109.70724-109.771222-385.297628 385.382937a24.462326 24.462326 0 0 1-33.782323-0.063981 23.673219 23.673219 0 0 1 0-33.675687l377.491864-377.555846 7.869746-7.805764-120.648106-120.648106z m301.204384 326.093255a9.383979 9.383979 0 0 1 2.68723-6.526131l186.570556-186.570555a9.256015 9.256015 0 0 1 13.052261 0l20.985988 21.071297c1.727505 1.706178 2.68723 4.030845 2.68723 6.462149a9.383979 9.383979 0 0 1-2.68723 6.52613l-186.570555 186.570556a9.511942 9.511942 0 0 1-13.052261 0l-20.985989-21.071298a8.978761 8.978761 0 0 1-2.68723-6.462148zM500.744763 102.407998a9.213361 9.213361 0 0 1-2.68723 6.52613l-186.634537 186.634537a9.383979 9.383979 0 0 1-12.98828 0l-21.839077-21.881732a9.277342 9.277342 0 0 1 0-13.052261l186.570555-186.570555a9.341324 9.341324 0 0 1 13.073589 0l21.881731 21.881732c1.684851 1.748832 2.623249 4.052173 2.623249 6.462149z m382.866325 758.630684h-356.377913a130.117393 130.117393 0 0 0-129.98943 129.946775v33.014543h616.420755v-33.014543a130.181375 130.181375 0 0 0-130.053412-129.946775z m-411.167551 96.974887a63.683091 63.683091 0 0 1 54.725657-30.903148h356.441894c22.905439 0 43.400901 11.964573 54.725657 30.903148H472.443537z" fill="#515151" p-id="25182"></path></svg>