<svg t="1673340944525" class="icon" viewBox="0 0 1024 1024" version="1.1" xmlns="http://www.w3.org/2000/svg" p-id="26281" width="200" height="200"><path d="M592 496a32 32 0 0 0 0-64H512.384l-1.088-1.152 102.4-102.4a33.344 33.344 0 1 0-47.296-47.232l-102.4 102.4-102.4-102.4a33.344 33.344 0 1 0-47.296 47.232l102.4 102.4-1.088 1.152H336a32 32 0 0 0 0 64h96v64h-96c-17.6 0-32 14.4-32 32s14.4 32 32 32h96v64c0 17.6 14.4 32 32 32s32-14.4 32-32v-64h96c17.6 0 32-14.4 32-32s-14.4-32-32-32h-96v-64h96zM656 560a128 128 0 1 0 256.064-0.064 128 128 0 0 0-256.064 0.064z m191.488 0a63.488 63.488 0 1 1-126.976 0 63.488 63.488 0 0 1 126.976 0zM784 752a192 192 0 0 0-192 192h64a128 128 0 0 1 256 0h64a192 192 0 0 0-192-192z" fill="" p-id="26282"></path><path d="M531.904 905.728a410.88 410.88 0 0 1-67.904 6.272 416 416 0 1 1 0-832 415.808 415.808 0 0 1 401.024 306.496c-12.352-5.76-61.376-17.216-73.088-17.6A351.808 351.808 0 0 0 112 496a352 352 0 0 0 352 352c30.656 0 60.096-4.352 88.512-11.776a512.064 512.064 0 0 0-20.608 69.504z" fill="" p-id="26283"></path></svg>