<svg t="1673341008238" class="icon" viewBox="0 0 1024 1024" version="1.1" xmlns="http://www.w3.org/2000/svg" p-id="27685" width="200" height="200"><path d="M684.8 448v32c80 73.6 131.2 160 131.2 214.4 0 108.8-131.2 163.2-304 163.2s-304-54.4-304-163.2c0-54.4 51.2-140.8 131.2-214.4v-32h-6.4l-99.2-124.8c0-25.6 16-64 41.6-83.2 12.8 28.8 44.8 51.2 80 51.2 41.6 0 76.8-25.6 86.4-64h6.4c12.8-35.2 19.2-64 64-64s83.2 25.6 99.2 64h9.6c9.6 35.2 9.6 64 51.2 64 38.4 0 67.2-22.4 80-51.2 22.4 19.2 41.6 57.6 41.6 83.2L691.2 448h-6.4z m-163.2 12.8c25.6 0 44.8 9.6 64 22.4l32-35.2c-19.2-19.2-35.2-19.2-64-22.4v-44.8h-86.4v44.8c-38.4 12.8-54.4 35.2-54.4 67.2 0 41.6 32 64 64 76.8l41.6 16c28.8 9.6 44.8 16 44.8 38.4 0 19.2-16 32-48 32-25.6 0-57.6-12.8-76.8-32l-35.2 38.4c19.2 19.2 38.4 19.2 67.2 22.4v44.8h86.4v-44.8c51.2-9.6 73.6-28.8 73.6-67.2 0-41.6-25.6-60.8-60.8-76.8l-41.6-16c-25.6-9.6-48-16-48-35.2-3.2-19.2 16-28.8 41.6-28.8z" fill="#515151" p-id="27686"></path></svg>