<svg t="1673341042478" class="icon" viewBox="0 0 1024 1024" version="1.1" xmlns="http://www.w3.org/2000/svg" p-id="28483" width="200" height="200"><path d="M411.1 620.06l-294.9 46.11L41 1016h394.2z" fill="#515151" p-id="28484"></path><path d="M411.1 620.06l-21.12 3.3 21.88 359.49H48.13L41 1016h394.2z" fill="#515151" p-id="28485"></path><path d="M363.2 949.88h-18v-10h18v10z m-36 0h-18v-10h18v10z m-36 0h-18v-10h18v10z m-36 0h-18v-10h18v10z m-36 0h-18v-10h18v10z m-36 0h-18v-10h18v10z m-36 0h-18v-10h18v10z m-36 0h-18v-10h18v10z m-26.13-7.97l-9.78-2.1 3.78-17.6 9.78 2.1-3.78 17.6z m283.19-4.21l-1.09-17.97 9.98-0.61 1.09 17.97-9.98 0.61zM92.64 906.71l-9.78-2.1 3.78-17.6 9.78 2.1-3.78 17.6z m273.43-4.94l-1.09-17.97 9.98-0.61 1.09 17.97-9.98 0.61zM100.2 871.51l-9.78-2.1 3.78-17.6 9.78 2.1-3.78 17.6z m263.68-5.67l-1.09-17.97 9.98-0.61 1.09 17.97-9.98 0.61z m-256.11-29.52l-9.78-2.1 3.78-17.6 9.78 2.1-3.78 17.6z m253.92-6.42l-1.09-17.97 9.98-0.61 1.09 17.97-9.98 0.61z m-246.35-28.78l-9.78-2.1 3.78-17.6 9.78 2.1-3.78 17.6z m244.17-7.15l-1.1-17.97 9.98-0.61 1.09 17.97-9.97 0.61zM122.9 765.93l-9.78-2.1 3.78-17.6 9.78 2.1-3.78 17.6z m234.42-7.89l-1.09-17.97 9.98-0.61 1.09 17.97-9.98 0.61z m-226.85-27.31l-9.78-2.1 3.78-17.6 9.78 2.1-3.78 17.6z m224.66-8.63l-1.09-17.97 9.98-0.61 1.09 17.97-9.98 0.61z m-217.1-26.57l-9.78-2.1 3.06-14.21 10.21-1.6 1.54 9.88-3.42 0.54-1.61 7.49z m214.91-9.36l-1.09-17.97 9.98-0.61 1.09 17.97-9.98 0.61z m-192.09-1.45l-1.54-9.88 17.78-2.78 1.54 9.88-17.78 2.78z m35.57-5.56l-1.54-9.88 17.78-2.78 1.54 9.88-17.78 2.78z m35.57-5.56l-1.54-9.88 17.78-2.78 1.54 9.88-17.78 2.78z m35.57-5.56l-1.54-9.88 17.78-2.78 1.54 9.88-17.78 2.78z m35.56-5.56l-1.54-9.88 17.78-2.78 1.54 9.88-17.78 2.78z m35.57-5.56l-1.54-9.88 23.21-3.63 0.38 6.22-4.92 0.3 0.66 4.21-17.79 2.78z" fill="#515151" p-id="28486"></path><path d="M68.58 742.24c-0.56 0-1.12-0.06-1.69-0.18-4.32-0.93-7.07-5.18-6.14-9.5l20.93-97.36c0.7-3.24 3.31-5.71 6.59-6.22l58.9-9.21c4.36-0.69 8.46 2.3 9.14 6.67 0.68 4.37-2.3 8.46-6.67 9.14l-53.47 8.36-19.77 91.99a8.014 8.014 0 0 1-7.82 6.31z" fill="#515151" p-id="28487"></path><path d="M232.02 614.6l-55.82 8.72" fill="#515151" p-id="28488"></path><path d="M176.19 631.33c-3.87 0-7.28-2.82-7.89-6.77-0.68-4.37 2.3-8.46 6.67-9.14l55.82-8.73c4.36-0.68 8.46 2.3 9.14 6.67 0.68 4.37-2.3 8.46-6.67 9.14l-55.82 8.73c-0.42 0.06-0.84 0.1-1.25 0.1z" fill="#515151" p-id="28489"></path><path d="M435.2 1024H8c-2.42 0-4.7-1.09-6.22-2.97a7.995 7.995 0 0 1-1.6-6.71L51.32 776.4c0.93-4.32 5.18-7.07 9.5-6.14 4.32 0.93 7.07 5.18 6.14 9.5L17.9 1008h408.8l-25.07-411.83-146.49 22.91c-4.37 0.68-8.46-2.3-9.14-6.67-0.68-4.36 2.3-8.46 6.67-9.14l155.18-24.26c2.23-0.35 4.5 0.26 6.25 1.67a7.993 7.993 0 0 1 2.97 5.75l26.12 429.09c0.13 2.2-0.65 4.36-2.16 5.97s-3.63 2.51-5.83 2.51z" fill="#515151" p-id="28490"></path><path d="M531.58 47.67c-121.24 0-219.52 103.48-219.52 231.14s98.28 231.14 219.52 231.14S751.1 406.46 751.1 278.8 652.82 47.67 531.58 47.67zM519.4 457.51c-100.65 0-183.56-84.3-194.69-192.82 58.23-0.68 118.38-26.3 163.47-75.28 15.09-16.39 27.43-34.24 37.02-52.92 5.52 6.87 11.59 13.41 18.24 19.53 45.71 42.08 108.21 55.95 168.56 43.4a242.06 242.06 0 0 1 3.37 40.35c0.01 120.25-87.73 217.74-195.97 217.74zM274.65 203.89a264.99 264.99 0 0 1 12.2-38.75" fill="#515151" p-id="28491"></path><path d="M274.66 211.89c-0.64 0-1.3-0.08-1.95-0.24-4.32-1.08-6.77-5.63-5.76-9.96 3.12-13.34 7.27-26.52 12.34-39.19 1.6-4 6-6.32 10.09-4.96a8.002 8.002 0 0 1 4.9 10.57 256.513 256.513 0 0 0-11.83 37.58c-0.87 3.7-4.16 6.2-7.79 6.2z" fill="#515151" p-id="28492"></path><path d="M512 530.56c-67.48 0-130.91-27.65-178.58-77.85-47.57-50.09-73.77-116.65-73.77-187.43 0-15 1.2-30.04 3.57-44.7 0.7-4.36 4.81-7.32 9.17-6.62 4.36 0.7 7.33 4.81 6.62 9.17-2.23 13.82-3.36 28-3.36 42.15 0 137.45 106.03 249.28 236.35 249.28s236.35-111.83 236.35-249.28S642.32 16 512 16c-44.61 0-88.05 13.17-125.63 38.09-3.68 2.44-8.65 1.44-11.09-2.25-2.44-3.68-1.44-8.65 2.25-11.09C417.74 14.09 464.23 0 512 0c67.48 0 130.91 27.65 178.58 77.85 47.57 50.09 73.77 116.65 73.77 187.43s-26.2 137.35-73.77 187.43c-47.67 50.2-111.1 77.85-178.58 77.85z" fill="#515151" p-id="28493"></path><path d="M551.03 191.59c-5.99-5.52-11.46-11.4-16.43-17.59-8.64 16.82-19.75 32.91-33.34 47.67-40.62 44.12-94.79 67.19-147.24 67.81 10.03 97.74 84.71 173.67 175.36 173.67 97.49 0 176.52-87.81 176.52-196.13 0-12.42-1.05-24.56-3.04-36.34-54.37 11.3-110.66-1.19-151.83-39.09z" fill="#515151" p-id="28494"></path><path d="M703.51 234.8c0.06 2.15 0.11 4.31 0.11 6.49 0 108.32-79.03 196.13-176.52 196.13-82.54 0-151.82-62.95-171.14-147.99-0.65 0.01-1.3 0.04-1.94 0.05 10.03 97.74 84.71 173.67 175.36 173.67 97.49 0 176.52-87.81 176.52-196.13 0-10.98-0.83-21.74-2.39-32.22z" fill="#515151" p-id="28495"></path><path d="M320.06 106.04c12.98-17.32 28.03-32.84 44.75-46.15" fill="#515151" p-id="28496"></path><path d="M320.05 114.04c-1.67 0-3.35-0.52-4.79-1.6-3.54-2.65-4.25-7.66-1.6-11.2 13.39-17.87 28.92-33.89 46.17-47.61 3.46-2.75 8.49-2.18 11.24 1.28s2.18 8.49-1.28 11.24c-16.18 12.88-30.76 27.91-43.33 44.69a7.969 7.969 0 0 1-6.41 3.2zM413.28 69.18a7.93 7.93 0 0 1-3.7-3.44c-2.12-3.88-0.7-8.74 3.18-10.86 19.58-10.72 29.97-15.4 51.36-20.75a7.994 7.994 0 0 1 9.7 5.82 7.994 7.994 0 0 1-5.82 9.7c-20.06 5.02-29.17 9.2-47.56 19.26a8.01 8.01 0 0 1-7.16 0.27zM483.8 42.86a7.926 7.926 0 0 1-2.47-4.41c-0.83-4.34 1.98-8.69 6.35-9.37 21.65-3.35 6.18-0.96 25.52-3.08 4.39-0.48 7.75 4.1 7.46 8.51-0.29 4.41-4.15 6.72-8.51 7.46-8.85 1.49-4.22-0.04-21.46 2.83-2.57 0.43-5.09-0.3-6.89-1.94zM488.18 197c-1.84 0-3.68-0.66-5.14-2.01-3.08-2.84-3.28-7.64-0.44-10.72 14.3-15.53 26.36-32.78 35.85-51.25a7.577 7.577 0 0 1 5.98-4.08c2.56-0.26 5.07 0.79 6.68 2.8 5.36 6.67 11.24 12.97 17.47 18.7 3.08 2.84 3.28 7.64 0.44 10.72-2.84 3.08-7.64 3.28-10.72 0.44-4.05-3.73-7.97-7.68-11.7-11.8-9.16 15.98-20.18 31-32.84 44.75a7.528 7.528 0 0 1-5.58 2.45z" fill="#515151" p-id="28497"></path><path d="M595.55 189.4a178.472 178.472 0 0 1-36.71-20.71" fill="#515151" p-id="28498"></path><path d="M595.54 197.4c-1.03 0-2.07-0.2-3.08-0.62a186.648 186.648 0 0 1-38.35-21.64c-3.56-2.61-4.33-7.62-1.72-11.18 2.61-3.56 7.62-4.34 11.18-1.72 10.81 7.93 22.61 14.58 35.06 19.78 4.08 1.7 6 6.39 4.3 10.47-1.28 3.06-4.26 4.91-7.39 4.91z" fill="#515151" p-id="28499"></path><path d="M519.4 465.1c-50.45 0-98.85-20.57-136.27-57.93-36.95-36.88-60.37-87.21-65.96-141.7-0.22-2.12 0.47-4.23 1.89-5.82a7.61 7.61 0 0 1 5.57-2.54c52.21-0.61 103.33-21.5 143.95-58.82 3.08-2.83 7.88-2.63 10.72 0.45a7.596 7.596 0 0 1-0.45 10.72c-41.2 37.85-92.61 59.87-145.61 62.55C347.27 374 426.05 449.93 519.4 449.93c103.88 0 188.39-94.28 188.39-210.16 0-10.5-0.71-21.04-2.11-31.43-31.49 5.36-63.36 3.75-92.66-4.75a7.585 7.585 0 0 1-5.17-9.4c1.17-4.02 5.38-6.34 9.4-5.17 29.38 8.52 61.61 9.55 93.21 2.98a7.579 7.579 0 0 1 9.02 6.16c2.31 13.68 3.48 27.68 3.48 41.61 0 60.04-21.08 116.52-59.35 159.04-38.47 42.75-89.68 66.29-144.21 66.29z" fill="#515151" p-id="28500"></path><path d="M612.9 620.06l294.9 46.11L983 1016H588.8z" fill="#515151" p-id="28501"></path><path d="M612.9 620.06l21.12 3.3-21.88 359.49h363.73L983 1016H588.8z" fill="#515151" p-id="28502"></path><path d="M930.8 949.88h-18v-10h18v10z m-36 0h-18v-10h18v10z m-36 0h-18v-10h18v10z m-36 0h-18v-10h18v10z m-36 0h-18v-10h18v10z m-36 0h-18v-10h18v10z m-36 0h-18v-10h18v10z m-36 0h-18v-10h18v10z m260.13-7.97l-3.78-17.6 9.78-2.1 3.78 17.6-9.78 2.1z m-283.19-4.21l-9.98-0.61 1.09-17.97 9.98 0.61-1.09 17.97z m275.62-30.99l-3.78-17.6 9.78-2.1 3.78 17.6-9.78 2.1z m-273.43-4.94l-9.98-0.61 1.09-17.97 9.98 0.61-1.09 17.97z m265.87-30.26l-3.78-17.6 9.78-2.1 3.78 17.6-9.78 2.1z m-263.68-5.67l-9.98-0.61 1.09-17.97 9.98 0.61-1.09 17.97z m256.11-29.52l-3.78-17.6 9.78-2.1 3.78 17.6-9.78 2.1z m-253.92-6.42l-9.98-0.61 1.09-17.97 9.98 0.61-1.09 17.97z m246.35-28.78l-3.78-17.6 9.78-2.1 3.78 17.6-9.78 2.1z m-244.17-7.15l-9.98-0.61 1.09-17.97 9.98 0.61-1.09 17.97z m236.61-28.04l-3.78-17.6 9.78-2.1 3.78 17.6-9.78 2.1z m-234.42-7.89l-9.98-0.61 1.09-17.97 9.98 0.61-1.09 17.97z m226.85-27.31l-3.78-17.6 9.78-2.1 3.78 17.6-9.78 2.1z m-224.66-8.63l-9.98-0.61 1.09-17.97 9.98 0.61-1.09 17.97z m217.1-26.57l-1.61-7.49-3.42-0.54 1.54-9.88 10.21 1.6 3.06 14.21-9.78 2.1z m-214.91-9.36l-9.98-0.61 1.09-17.97 9.98 0.61-1.09 17.97z m192.09-1.45l-17.78-2.78 1.54-9.88 17.78 2.78-1.54 9.88z m-35.57-5.56l-17.78-2.78 1.54-9.88 17.78 2.78-1.54 9.88z m-35.57-5.56l-17.78-2.78 1.54-9.88 17.78 2.78-1.54 9.88z m-35.57-5.56l-17.78-2.78 1.54-9.88 17.78 2.78-1.54 9.88z m-35.56-5.56l-17.78-2.78 1.54-9.88 17.78 2.78-1.54 9.88z m-35.57-5.56l-17.78-2.78 0.66-4.21-4.92-0.3 0.38-6.22 23.21 3.63-1.55 9.88z" fill="#515151" p-id="28503"></path><path d="M955.42 742.24c0.56 0 1.12-0.06 1.69-0.18 4.32-0.93 7.07-5.18 6.14-9.5l-20.93-97.36a7.991 7.991 0 0 0-6.59-6.22l-58.9-9.21c-4.36-0.69-8.46 2.3-9.14 6.67-0.68 4.37 2.3 8.46 6.67 9.14l53.47 8.36 19.77 91.99a8.014 8.014 0 0 0 7.82 6.31z" fill="#515151" p-id="28504"></path><path d="M791.98 614.6l55.82 8.72" fill="#515151" p-id="28505"></path><path d="M847.81 631.33c-0.41 0-0.83-0.03-1.25-0.1l-55.82-8.73c-4.37-0.68-7.35-4.77-6.67-9.14s4.77-7.35 9.14-6.67l55.82 8.73c4.37 0.68 7.35 4.77 6.67 9.14-0.61 3.95-4.02 6.77-7.89 6.77z" fill="#515151" p-id="28506"></path><path d="M588.8 1024H1016c2.42 0 4.7-1.09 6.22-2.97a7.995 7.995 0 0 0 1.6-6.71L972.68 776.4c-0.93-4.32-5.18-7.07-9.5-6.14-4.32 0.93-7.07 5.18-6.14 9.5L1006.1 1008H597.3l25.07-411.83 146.49 22.91c4.37 0.68 8.46-2.3 9.14-6.67 0.68-4.36-2.3-8.46-6.67-9.14l-155.18-24.26a7.99 7.99 0 0 0-6.25 1.67 7.993 7.993 0 0 0-2.97 5.75l-26.12 429.09c-0.13 2.2 0.65 4.36 2.16 5.97s3.63 2.51 5.83 2.51z" fill="#515151" p-id="28507"></path><path d="M882.06 834.44H741.24c-0.41 0-0.74-0.33-0.74-0.74l6-64.48c0-0.41 0.33-0.74 0.74-0.74h119.82c0.41 0 0.74 0.33 0.74 0.74l15 64.48c0 0.4-0.33 0.74-0.74 0.74z" fill="#515151" p-id="28508"></path><path d="M882.06 842.44H741.24c-4.82 0-8.74-3.92-8.74-8.74l0.03-0.74 5.98-64.3c0.29-4.56 4.09-8.18 8.72-8.18h119.82c4.34 0 7.96 3.19 8.63 7.34l15.11 64.96v0.92c0.01 4.82-3.91 8.74-8.73 8.74z m-132.85-16H872.9l-11.62-49.96H753.86l-4.65 49.96z" fill="#515151" p-id="28509"></path><path d="M534.16 623.89h-44.31c-0.41 0-0.74-0.33-0.74-0.74l-40-64.48c0-0.41 0.33-0.74 0.74-0.74h124.31c0.41 0 0.74 0.33 0.74 0.74l-40 64.48c0 0.41-0.34 0.74-0.74 0.74z" fill="#515151" p-id="28510"></path><path d="M534.16 631.89h-44.31c-3.63 0-6.75-2.22-8.07-5.37l-40.67-65.57v-2.28c0-4.82 3.92-8.74 8.74-8.74h124.31c4.82 0 8.74 3.92 8.74 8.74v2.28l-40.67 65.57c-1.33 3.15-4.45 5.37-8.07 5.37z m-40.15-16h35.97l30.99-49.96h-97.96l31 49.96z" fill="#515151" p-id="28511"></path><path d="M489.84 656.33h44.31c0.41 0 0.74 0.33 0.74 0.74l20 358.18c0 0.41-0.33 0.74-0.74 0.74h-84.31c-0.41 0-0.74-0.33-0.74-0.74l20-358.18c0-0.4 0.34-0.74 0.74-0.74z" fill="#515151" p-id="28512"></path><path d="M554.16 1024h-84.31c-4.82 0-8.74-3.92-8.74-8.74l0.01-0.45 19.99-358.08c0.18-4.66 4.03-8.4 8.74-8.4h44.31c4.71 0 8.56 3.74 8.74 8.4l20.01 358.3v0.22c-0.01 4.83-3.93 8.75-8.75 8.75z m-76.64-16h68.96l-19.19-343.67h-30.58L477.52 1008z" fill="#515151" p-id="28513"></path><path d="M535.24 660.33h-46.48c-7.51 0-13.66-6.15-13.66-13.66v-23.53c0-7.51 6.15-13.66 13.66-13.66h46.48c7.51 0 13.66 6.15 13.66 13.66v23.53c0 7.52-6.15 13.66-13.66 13.66z" fill="#515151" p-id="28514"></path><path d="M535.24 668.33h-46.48c-11.94 0-21.66-9.72-21.66-21.66v-23.53c0-11.94 9.72-21.66 21.66-21.66h46.48c11.94 0 21.66 9.72 21.66 21.66v23.53c0 11.95-9.72 21.66-21.66 21.66z m-46.48-50.84c-3.12 0-5.66 2.54-5.66 5.66v23.53c0 3.12 2.54 5.66 5.66 5.66h46.48c3.12 0 5.66-2.54 5.66-5.66v-23.53c0-3.12-2.54-5.66-5.66-5.66h-46.48z" fill="#515151" p-id="28515"></path></svg>