<svg t="1673341079484" class="icon" viewBox="0 0 1024 1024" version="1.1" xmlns="http://www.w3.org/2000/svg" p-id="28868" width="200" height="200"><path d="M873.9 315.2c-0.9-14.6-6.5-17.9-19.8-19.4-48.7-5.6-77-31.3-84.7-78.6-3.1-19.2-11.7-27.5-29.6-33.9-74.8-26.6-148.9-55.1-223.2-82.9h-21c-4.2 7.6-12.4 7.7-19.2 10.2-68.8 25.2-137.5 50.5-206.5 75-12.6 4.5-18.2 10.7-20.8 24.3-10.6 56.7-31.5 77.1-87.2 85.7-13.7 2.1-18.3 7.1-19 20.8-4.2 75.2-0.2 149.5 16.7 223.1C201.4 722 301.4 857.2 476.8 932.2c21.7 9.3 41.2 10 62.3 0.8 109.2-47.4 196.7-119.4 254.4-224.7 67.1-122.7 89-254.8 80.4-393.1z m-232.2 209c-10.7 10.7-12.3 19.7-9.8 33 8.1 43.3 15.4 86.8 22.8 130.2 0.7 4 0.1 8.2 0.1 14.1-44.1-23.1-87.7-45.2-130.3-68.8-11.9-6.6-20.5-6.9-32.4-0.3-42.8 23.4-86.3 45.5-132.5 69.8 7-41 11-80 20.9-117.5 9.2-34.6 1.8-58.3-25.6-81.7-29-24.8-53.1-55.4-80.2-84.4 44.7-6.5 91.6-13.8 138.7-19.7 14.8-1.9 23.1-7.5 29.5-21.4 20.1-43.5 42.1-86 65.4-132.7 22.4 45.1 43.9 86.4 63.3 128.5 8.1 17.5 19.1 24.2 38.2 26.2 45.7 4.8 91 12.5 131.5 18.4-32.6 35-65.1 71.7-99.6 106.3z" p-id="28869"></path></svg>