<svg t="1673341159867" class="icon" viewBox="0 0 1024 1024" version="1.1" xmlns="http://www.w3.org/2000/svg" p-id="31526" width="200" height="200"><path d="M679.360719 753.514427m33.147685 0l110.292854 0q33.147685 0 33.147686 33.147685l0 0.011506q0 33.147685-33.147686 33.147685l-110.292854 0q-33.147685 0-33.147685-33.147685l0-0.011506q0-33.147685 33.147685-33.147685Z" fill="#515151" p-id="31527"></path><path d="M679.360719 614.342472m33.147685 0l0.011506 0q33.147685 0 33.147686 33.147685l0 139.183461q0 33.147685-33.147686 33.147685l-0.011506 0q-33.147685 0-33.147685-33.147685l0-139.183461q0-33.147685 33.147685-33.147685Z" fill="#515151" p-id="31528"></path><path d="M763.869483 495.316854c0.241618-1.633798 0.954966-3.095011 0.954966-4.786337a33.147685 33.147685 0 0 0-33.147685-33.159191H246.404315a33.159191 33.159191 0 0 0-33.159191 33.159191 33.147685 33.147685 0 0 0 33.159191 33.147685h336.493303a272.09636 272.09636 0 0 1 180.971865-28.361348zM731.676764 294.371236h-484.616629c-17.477034 0-32.457348 13.254472-33.722966 30.673977a33.159191 33.159191 0 0 0 33.067146 35.667416h484.616629c17.465528 0 32.445843-13.254472 33.722966-30.673977a33.159191 33.159191 0 0 0-33.067146-35.667416zM246.404315 620.382921a33.159191 33.159191 0 0 0-33.067146 35.667416c1.265618 17.419506 16.245933 30.685483 33.722966 30.685483h203.787505a272.591101 272.591101 0 0 1 29.983641-66.306876zM246.404315 783.383011a33.159191 33.159191 0 0 0-33.067146 35.667416c1.265618 17.431011 16.245933 30.685483 33.722966 30.685483h205.835505a272.740674 272.740674 0 0 1-12.57564-66.306876z" fill="#515151" p-id="31529"></path><path d="M518.661753 957.693124H207.802966a80.803955 80.803955 0 0 1-80.81546-80.803955V147.099326a80.884494 80.884494 0 0 1 80.81546-80.79245h439.618158v88.949933a132.602247 132.602247 0 0 0 132.613752 132.602247h71.047191v239.777079a275.133843 275.133843 0 0 1 66.306877 53.880809V213.026517a47.828854 47.828854 0 0 0-13.806742-33.469843L740.202427 14.15191A48.035955 48.035955 0 0 0 706.306876 0H207.779955A147.099326 147.099326 0 0 0 60.680629 147.099326v729.789843A147.122337 147.122337 0 0 0 207.802966 1024h416.445843a274.328449 274.328449 0 0 1-105.587056-66.306876z m195.066247-876.037753l137.354067 139.045393v0.862921h-71.047191a66.306876 66.306876 0 0 1-66.306876-66.306876z" fill="#515151" p-id="31530"></path><path d="M714.970607 1015.62391c-137.365573 0.126562-249.085124-111.604494-248.970068-248.970067 0.149573-136.652225 111.696539-248.187685 248.348764-248.348764 137.342562-0.161079 249.085124 111.604494 248.935551 248.93555-0.115056 136.652225-111.650517 248.187685-248.314247 248.383281z m3.808359-430.931416c-103.769169-2.301124-188.692135 82.610337-186.391011 186.391012 2.140045 97.09591 81.091596 176.035955 178.199011 178.187505 103.780674 2.301124 188.692135-82.610337 186.391012-186.391011-2.140045-97.130427-81.091596-176.081978-178.199012-178.222022z" fill="#515151" p-id="31531"></path></svg>