<svg t="1673341196166" class="icon" viewBox="0 0 1024 1024" version="1.1" xmlns="http://www.w3.org/2000/svg" p-id="32242" width="200" height="200"><path d="M493.44 89.52a64 64 0 0 1 32.547-1.203l4.573 1.204 320 96.97c25.7 7.787 43.663 30.72 45.316 57.245l0.124 4.004v349.593c0 157.585-125.002 269.655-365.215 337.333L512 939.836l-8.42-2.297c-243.503-66.41-371.934-177.195-375.503-333.48l-0.077-6.726V247.74c0-26.854 16.738-50.696 41.644-59.97l3.796-1.28 320-96.97zM512 150.77l-320 96.97v349.593c0 118.857 96.503 209.149 298.375 269.857l9.85 2.914L512 873.451l11.775-3.347C725.683 811.33 825.51 723.92 831.693 608.84l0.232-5.777 0.075-5.729V247.74l-320-96.97z m192 211.897V512l-32-0.014v85.347c0 10.94 8.236 19.958 18.845 21.19l2.488 0.144h32v42.666h-32c-34.084 0-61.944-26.643-63.891-60.24l-0.109-3.76v-85.347l-43.057 0.036c-2.005 54.142-11.73 103.428-29.244 147.777l-4.09 9.938-39.217-16.807c17.77-41.465 27.75-88.41 29.854-140.932L512 512V362.667h192z m-216.84-63.71l7.014 42.086c-19.682 3.28-42.165 5.819-67.466 7.622l-0.041 35.321 64 0.014v42.667l-64-0.014v234.68H384v-234.68l-64 0.014V384l64-0.014 0.042-33.07c-16.22 0.589-33.369 0.937-51.45 1.046L320 352v-42.667c65.914 0 119.209-3.088 159.715-9.196l7.444-1.18zM362.666 448c0 56.69-2.756 113.378-8.267 170.063l-2.53 24.293-42.406-4.712c6.146-55.316 9.603-110.629 10.371-165.94L320 448h42.667z m128 0v192H448V448h42.667z m170.666-42.667H554.667v64h106.666v-64z m-74.666-106.666v42.666h-64v-42.666h64z m106.666 0v42.666h-64v-42.666h64z" fill="#515151" p-id="32243"></path></svg>