<svg t="1675146854373" class="icon" viewBox="0 0 1024 1024" version="1.1" xmlns="http://www.w3.org/2000/svg" p-id="2562" width="200" height="200"><path d="M962.921412 265.276235H305.332706a37.586824 37.586824 0 0 0 0 75.14353h657.588706a37.586824 37.586824 0 0 0 0-75.14353z m-205.613177 359.454118H366.893176c-20.148706 0-36.532706 16.835765-36.532705 37.586823 0 20.720941 16.384 37.556706 36.532705 37.556706h390.415059c20.118588 0 36.502588-16.835765 36.502589-37.556706 0-20.781176-16.384-37.586824-36.502589-37.586823z m205.613177 150.287059H248.982588a37.586824 37.586824 0 0 0 0 75.173647h713.938824a37.586824 37.586824 0 0 0 0-75.14353z m-601.238588 150.317176a37.586824 37.586824 0 0 0-0.361412 75.14353h0.361412a37.586824 37.586824 0 0 0 0-75.14353z m450.921411 0a37.586824 37.586824 0 0 0-0.361411 75.14353h0.361411a37.586824 37.586824 0 0 0 0-75.14353z" fill="#2c2c2c" p-id="2563"></path><path d="M962.921412 265.276235c-13.432471 0-25.840941 7.137882-32.527059 18.793412l-206.697412 357.948235a37.586824 37.586824 0 0 0 65.024 37.556706L995.388235 321.656471a37.586824 37.586824 0 0 0-32.466823-56.350118zM136.252235 23.521882H61.078588a37.586824 37.586824 0 0 0 0 75.14353h75.173647a37.586824 37.586824 0 0 0 0-75.14353z m0.060236 150.287059a37.586824 37.586824 0 0 0-37.044706 44.122353l104.387764 592.052706c3.373176 19.004235 22.016 40.568471 41.020236 40.568471a27.497412 27.497412 0 0 0 4.306823-0.361412l-1.807059-9.697883a37.586824 37.586824 0 0 0 30.509177-43.52L173.176471 204.860235a37.586824 37.586824 0 0 0-36.894118-31.021176z" fill="#2c2c2c" p-id="2564"></path></svg>