<svg t="1673333130868" class="icon" viewBox="0 0 1024 1024" version="1.1" xmlns="http://www.w3.org/2000/svg" p-id="6213" width="200" height="200"><path d="M554.666667 597.333333h85.333333v42.666667h-85.333333v42.666667h-42.666667v-42.666667h-85.333333v-42.666667h85.333333v-42.666666h-85.333333v-42.666667h89.6L418.133333 413.866667l29.866667-29.866667 85.333333 85.333333 85.333334-85.333333 29.866666 29.866667-98.133333 98.133333H640v42.666667h-85.333333v42.666666z m-8.533334-85.333333z m-12.8 384C332.8 896 170.666667 733.866667 170.666667 533.333333S332.8 170.666667 533.333333 170.666667 896 332.8 896 533.333333 733.866667 896 533.333333 896z m0-42.666667c174.933333 0 320-145.066667 320-320S708.266667 213.333333 533.333333 213.333333 213.333333 358.4 213.333333 533.333333 358.4 853.333333 533.333333 853.333333z m0-42.666666C379.733333 810.666667 256 686.933333 256 533.333333S379.733333 256 533.333333 256 810.666667 379.733333 810.666667 533.333333 686.933333 810.666667 533.333333 810.666667z m0-42.666667c128 0 234.666667-106.666667 234.666667-234.666667S661.333333 298.666667 533.333333 298.666667 298.666667 405.333333 298.666667 533.333333 405.333333 768 533.333333 768z" fill="#ffffff" p-id="6214"></path></svg>