<?xml version="1.0" encoding="UTF-8"?>
<svg width="94px" height="94px" viewBox="0 0 94 94" version="1.1" xmlns="http://www.w3.org/2000/svg" xmlns:xlink="http://www.w3.org/1999/xlink">
    <!-- Generator: Sketch 53.2 (72643) - https://sketchapp.com -->
    <title>大图标/等待</title>
    <desc>Created with Sketch.</desc>
    <g id="艺租租" stroke="none" stroke-width="1" fill="none" fill-rule="evenodd">
        <g id="最终结果-copy" transform="translate(-141.000000, -702.000000)">
            <g id="提示-copy-2" transform="translate(50.000000, 650.000000)">
                <g id="内容">
                    <g id="标题" transform="translate(40.000000, 13.000000)">
                        <g id="大图标/等待" transform="translate(48.000000, 36.000000)">
                            <path d="M96.5,50.5740741 C96.5,24.3182222 75.6817778,3.5 49.4259259,3.5 C24.3182222,3.5 3.5,24.3182222 3.5,50.5740741 C3.5,75.6817778 24.3182222,96.5 49.4259259,96.5 C75.6817778,96.5 96.5,75.6817778 96.5,50.5740741 Z" id="Fill-" fill="#F76260"></path>
                            <g id="分组" transform="translate(33.000000, 32.000000)" fill="#FFFFFF">
                                <path d="M15.9504674,-3 C14.8426289,-3 13.9694556,-2.11219171 14.0008191,-0.994251368 L15.082954,37.5780125 C15.0985621,38.1343584 15.5586747,38.5853659 16.1123321,38.5853659 L18.7767646,38.5853659 C19.3296663,38.5853659 19.7901945,38.1464801 19.8061428,37.5780125 L20.8882776,-0.994251368 C20.9193551,-2.10199575 20.0579935,-3 18.9386293,-3 L15.9504674,-3 Z" id="Path" transform="translate(17.444546, 17.792683) rotate(-315.000000) translate(-17.444546, -17.792683) "></path>
                                <path d="M15.9504674,-3 C14.8426289,-3 13.9694556,-2.11219171 14.0008191,-0.994251368 L15.082954,37.5780125 C15.0985621,38.1343584 15.5586747,38.5853659 16.1123321,38.5853659 L18.7767646,38.5853659 C19.3296663,38.5853659 19.7901945,38.1464801 19.8061428,37.5780125 L20.8882776,-0.994251368 C20.9193551,-2.10199575 20.0579935,-3 18.9386293,-3 L15.9504674,-3 Z" id="Path" transform="translate(17.444546, 17.792683) rotate(-45.000000) translate(-17.444546, -17.792683) "></path>
                            </g>
                        </g>
                    </g>
                </g>
            </g>
        </g>
    </g>
</svg>