<?xml version="1.0" standalone="no"?><!DOCTYPE svg PUBLIC "-//W3C//DTD SVG 1.1//EN" "http://www.w3.org/Graphics/SVG/1.1/DTD/svg11.dtd"><svg t="1635476023979" class="icon" viewBox="0 0 1024 1024" version="1.1" xmlns="http://www.w3.org/2000/svg" p-id="6514" xmlns:xlink="http://www.w3.org/1999/xlink" width="200" height="200"><defs><style type="text/css"></style></defs><path d="M871.673333 770.813333a53.393333 53.393333 0 0 1 0 75.42l-37.713333 37.713334c-27.866667 27.866667-64.52 44.84-108.946667 50.46a264.333333 264.333333 0 0 1-33.213333 2.04c-32.333333 0-67.22-5.46-104.146667-16.32C487.42 890.666667 382 824.226667 290.9 733.1S133.333333 536.586667 103.873333 436.346667c-14.666667-49.94-19.493333-96.153333-14.28-137.333334 5.62-44.426667 22.593333-81.08 50.46-108.946666l37.713334-37.713334a53.393333 53.393333 0 0 1 75.42 0l165.94 165.933334a53.4 53.4 0 0 1 0 75.426666l-37.713334 37.686667c-21.333333 21.333333-0.1 90.413333 60.34 150.846667s129.486667 81.7 150.846667 60.34l37.713333-37.713334a53.4 53.4 0 0 1 75.426667 0z m53.053334-595.413333c-8.8-17.84-21.333333-33.8-37.246667-47.44C855.406667 100.473333 812.98 85.333333 768 85.333333s-87.406667 15.14-119.48 42.626667c-15.913333 13.64-28.446667 29.6-37.246667 47.44A132.833333 132.833333 0 0 0 597.333333 234.666667a135.093333 135.093333 0 0 0 19.46 69.38A152.84 152.84 0 0 0 646.933333 340c-9.486667 7.946667-21.953333 16.093333-38.666666 25.4A21.333333 21.333333 0 0 0 618.666667 405.333333c47.86 0 88.553333-8.2 118.393333-23.786666A196.346667 196.346667 0 0 0 768 384c44.98 0 87.406667-15.14 119.48-42.626667 15.913333-13.64 28.446667-29.6 37.246667-47.44a132.96 132.96 0 0 0 0-118.533333z" fill="#d81e06" p-id="6515"></path></svg>