<?xml version="1.0" encoding="UTF-8"?>
<svg width="94px" height="94px" viewBox="0 0 94 94" version="1.1" xmlns="http://www.w3.org/2000/svg" xmlns:xlink="http://www.w3.org/1999/xlink">
    <!-- Generator: Sketch 53.2 (72643) - https://sketchapp.com -->
    <title>大图标/完成</title>
    <desc>Created with Sketch.</desc>
    <g id="艺租租" stroke="none" stroke-width="1" fill="none" fill-rule="evenodd">
        <g id="最终结果-copy" transform="translate(-141.000000, -102.000000)">
            <g id="提示" transform="translate(50.000000, 50.000000)">
                <g id="内容">
                    <g id="标题" transform="translate(40.000000, 13.000000)">
                        <g id="大图标/完成" transform="translate(48.000000, 36.000000)">
                            <path d="M96.5,50.5740741 C96.5,24.3182222 75.6817778,3.5 49.4259259,3.5 C24.3182222,3.5 3.5,24.3182222 3.5,50.5740741 C3.5,75.6817778 24.3182222,96.5 49.4259259,96.5 C75.6817778,96.5 96.5,75.6817778 96.5,50.5740741 Z" id="Fill-" fill="#00A29A"></path>
                            <path d="M27.2701009,53.4250063 C26.8862073,53.0276955 26.8427827,52.3412446 27.1720444,51.8932245 L28.6681638,49.8574836 C28.9979023,49.4088147 29.6195912,49.3167111 30.0543259,49.6499102 L41.7252524,58.5950061 C42.1610701,58.9290353 42.8634603,58.9089992 43.2827479,58.5596987 L72.8301926,33.9442875 C73.2545559,33.5907585 73.9177368,33.6193744 74.3053909,34.0022203 L75.581958,35.2629537 C75.9723242,35.6484781 75.9759826,36.2688452 75.5755384,36.6629421 L43.2266201,68.4991098 C42.8327085,68.8867777 42.2092218,68.8862559 41.8182792,68.4816496 L27.2701009,53.4250063 Z" id="Fill-" fill="#FFFFFF"></path>
                        </g>
                    </g>
                </g>
            </g>
        </g>
    </g>
</svg>