<?xml version="1.0" encoding="UTF-8"?>
<svg width="94px" height="94px" viewBox="0 0 94 94" version="1.1" xmlns="http://www.w3.org/2000/svg" xmlns:xlink="http://www.w3.org/1999/xlink">
    <!-- Generator: Sketch 53.2 (72643) - https://sketchapp.com -->
    <title>大图标/警告</title>
    <desc>Created with Sketch.</desc>
    <g id="艺租租" stroke="none" stroke-width="1" fill="none" fill-rule="evenodd">
        <g id="最终结果-copy" transform="translate(-141.000000, -407.000000)">
            <g id="提示-copy" transform="translate(50.000000, 355.000000)">
                <g id="内容">
                    <g id="标题" transform="translate(40.000000, 13.000000)">
                        <g id="大图标/警告" transform="translate(48.000000, 36.000000)">
                            <path d="M96.5,50.5740741 C96.5,24.3182222 75.6817778,3.5 49.4259259,3.5 C24.3182222,3.5 3.5,24.3182222 3.5,50.5740741 C3.5,75.6817778 24.3182222,96.5 49.4259259,96.5 C75.6817778,96.5 96.5,75.6817778 96.5,50.5740741 Z" id="Fill-" fill="#F7CE60"></path>
                            <path d="M48.5059191,28.5 L51.4940809,28.5 C52.6134452,28.5 53.4669294,29.3953266 53.4261347,30.499768 L52.3701762,59.0879116 C52.3498257,59.6388652 51.8851179,60.0853659 51.3322163,60.0853659 L48.6677837,60.0853659 C48.1141263,60.0853659 47.6501715,59.6387904 47.6298238,59.0879116 L46.5738653,30.499768 C46.5330368,29.3944101 47.3980806,28.5 48.5059191,28.5 Z M50,71.5 C48.0670034,71.5 46.5,69.9329966 46.5,68 C46.5,66.0670034 48.0670034,64.5 50,64.5 C51.9329966,64.5 53.5,66.0670034 53.5,68 C53.5,69.9329966 51.9329966,71.5 50,71.5 Z" id="Path-" fill="#FFFFFF"></path>
                        </g>
                    </g>
                </g>
            </g>
        </g>
    </g>
</svg>