<?xml version="1.0" standalone="no"?><!DOCTYPE svg PUBLIC "-//W3C//DTD SVG 1.1//EN" "http://www.w3.org/Graphics/SVG/1.1/DTD/svg11.dtd"><svg t="1635998665242" class="icon" viewBox="0 0 1295 1024" version="1.1" xmlns="http://www.w3.org/2000/svg" p-id="2473" xmlns:xlink="http://www.w3.org/1999/xlink" width="252.9296875" height="200"><defs><style type="text/css"></style></defs><path d="M1129.263715 903.783442l30.013653 120.216558-134.170747-80.594217a451.878226 451.878226 0 0 1-104.480983 12.334748c-166.208703 0-306.93819-88.664435-356.277182-211.337147a605.32033 605.32033 0 0 1-87.071984 6.531749 593.552387 593.552387 0 0 1-153.577058-20.243022l-153.253169 122.645721 28.826063-173.091331C78.758852 612.094995 0.000002 501.136245 0.000002 375.467566 0.000002 168.098052 213.71233 0 477.303463 0c249.528981 0 454.037481 150.689053 475.198187 342.781834 192.119771 13.306413 343.051741 145.047998 343.05174 305.885553 0.107963 106.262369-65.96526 199.974064-166.289675 255.116055zM801.299773 614.389204a51.282322 51.282322 0 1 0-51.147368-51.282322 51.282322 51.282322 0 0 0 51.147368 51.282322z m-323.888347-546.129735c-225.966103 0-409.124964 137.652548-409.124964 307.208097s183.15886 307.208097 409.124964 307.208098a541.811223 541.811223 0 0 0 69.986873-4.831335 254.333325 254.333325 0 0 1-1.808376-29.311895c0-159.568992 148.448826-290.662801 338.571285-305.696619-21.592556-154.305807-195.520599-274.576346-406.776773-274.576346z m562.540077 443.727036a51.282322 51.282322 0 1 0 51.147368 51.282321 51.282322 51.282322 0 0 0-51.147368-51.282321z m-426.156092-204.805398a68.259469 68.259469 0 1 1 68.178497-68.28646 68.232478 68.232478 0 0 1-68.178497 68.31345z m-272.740979 0a68.259469 68.259469 0 1 1 68.178497-68.28646 68.232478 68.232478 0 0 1-68.205488 68.31345z" fill="#d81e06" p-id="2474"></path></svg>