<?xml version="1.0" standalone="no"?><!DOCTYPE svg PUBLIC "-//W3C//DTD SVG 1.1//EN" "http://www.w3.org/Graphics/SVG/1.1/DTD/svg11.dtd"><svg t="1635476224437" class="icon" viewBox="0 0 1024 1024" version="1.1" xmlns="http://www.w3.org/2000/svg" p-id="9646" xmlns:xlink="http://www.w3.org/1999/xlink" width="200" height="200"><defs><style type="text/css"></style></defs><path d="M513.856 192C724.672 192 896 320.512 896 478.72s-171.52 286.912-382.272 286.912a810.432 810.432 0 0 1-88.96-3.648l-19.648-2.56-19.2 3.52a275.2 275.2 0 0 0-74.624 25.6 169.152 169.152 0 0 0-65.92-105.152l-3.712-3.072-3.968-2.816A245.888 245.888 0 0 1 130.048 477.44a236.8 236.8 0 0 1 73.92-168A441.6 441.6 0 0 1 513.856 192m0-128C232.128 64 0 248.064 2.176 478.72a372.864 372.864 0 0 0 161.28 303.232c12.8 10.496 54.4 31.168-24.96 143.616-11.84 28.928 24.704 34.432 54.592 34.432a298.816 298.816 0 0 0 32.704-1.92c89.984-10.496 129.728-59.776 182.528-69.248a895.296 895.296 0 0 0 105.6 4.736c281.6 0 510.144-185.6 510.144-414.848S795.648 64 513.856 64zM320 384a64 64 0 1 1-64 64 64 64 0 0 1 64-64z m192 0a64 64 0 1 1-64 64 64 64 0 0 1 64-64z m192 0a64 64 0 1 1-64 64 64 64 0 0 1 64-64z" p-id="9647" fill="#d81e06"></path></svg>